<svg xmlns="http://www.w3.org/2000/svg" viewBox="0 0 662.66 437.53">
    <defs>
        <style>
            .cls-1{fill:#e0e0e0;}.cls-2{fill:#ebebeb;}.cls-3{fill:#f5f5f5;}.cls-4{fill:#e8505b;}.cls-5{opacity:0.3;}.cls-6{fill:#263238;}.cls-7{fill:#fff;}.cls-8{fill:#fafafa;}
        </style>
    </defs>
    <g id="Layer_2" data-name="Layer 2">
        <g id="Background_Complete" data-name="Background Complete">
            <path class="cls-1"
                  d="M662.5,207.07s0-.1,0-.28,0-.47,0-.8c0-.72,0-1.74,0-3.05,0-2.67,0-6.52-.09-11.37l.16.15-57.55.11.26-.26h0v7.86c0,2.58,0,5.13,0,7.62l-.25-.26,41,.12,12.1.07,3.27,0,.85,0a1,1,0,0,1,.3,0h-.27l-.82,0-3.21,0-12,.07-41.21.12h-.26V191.59h0c.52-.53.14-.15.26-.26l57.55.1h.16v.16c0,4.89-.07,8.78-.09,11.47,0,1.29,0,2.3,0,3,0,.32,0,.57,0,.77A1.15,1.15,0,0,1,662.5,207.07Z"/>
            <rect class="cls-2" x="328.53" width="57.55" height="15.5" />
            <path class="cls-1"
                  d="M410.17,31.4a1.73,1.73,0,0,1,0-.28c0-.2,0-.47,0-.8,0-.72,0-1.73,0-3,0-2.67-.05-6.52-.09-11.38l.16.16-57.55.1.26-.26h0v4c0,1.31,0,2.61,0,3.91V31.4l-.25-.26,41,.12,12.1.07,3.26,0,.86,0,.3,0h-.27l-.82,0-3.22,0-12,.08-41.21.11h-.26V15.91h0c.52-.52.14-.15.26-.26l57.55.1h.16v.16c0,4.9-.07,8.78-.09,11.47,0,1.29,0,2.3,0,3,0,.32,0,.57,0,.77A2.28,2.28,0,0,1,410.17,31.4Z"/>
            <path class="cls-1"
                  d="M97.55,271a1.73,1.73,0,0,1,0-.28c0-.21,0-.47,0-.8,0-.72,0-1.74,0-3.05,0-2.66,0-6.52-.09-11.37l.16.16-57.55.1c.11-.12-.26.26.26-.26h0V271L40,270.7l41,.12,12.1.07,3.26,0,.86,0,.3,0h-.27l-.82,0-3.22,0-12,.07L40,271.21h-.25v-7.87c0-1.3,0-2.6,0-3.92v-3.94h0l.27-.26,57.55.1h.16v.16c0,4.89-.07,8.78-.09,11.47,0,1.29,0,2.3,0,3,0,.32,0,.57,0,.77A2.28,2.28,0,0,1,97.55,271Z"/>
            <path class="cls-1"
                  d="M104,286.46a1.11,1.11,0,0,1,0-.3c0-.22,0-.49,0-.82,0-.76,0-1.8,0-3.12,0-2.71-.07-6.55-.11-11.26l.2.19-28.78.07.26-.26h0v8q0,3.88,0,7.49l-.25-.25,20.62.12,6,.07,1.6,0,.58,0a3.2,3.2,0,0,1-.52,0l-1.56,0-5.91.06-20.79.12h-.24v-.24q0-3.6,0-7.49c0-1.3,0-2.62,0-4v-4h0c-.06.05.49-.5.26-.26l28.78.06h.2v.2c0,4.76-.08,8.64-.11,11.38,0,1.3,0,2.33,0,3.07,0,.32,0,.58,0,.79A1.21,1.21,0,0,1,104,286.46Z"/>
            <path class="cls-1"
                  d="M641.28,43.51a1.73,1.73,0,0,1,0-.28c0-.2,0-.46,0-.79,0-.73,0-1.74,0-3,0-2.67-.05-6.52-.08-11.38l.16.16-57.55.1c.11-.12-.27.26.25-.26h0V43.51l-.26-.26,41,.12,12.09.07,3.27,0H641l.31,0H641l-.83,0-3.21,0-12,.08-41.21.11h-.25v-.25q0-3.73,0-7.62V28h0c.52-.52.15-.15.27-.26l57.55.1h.16V28c0,4.9-.07,8.78-.09,11.47,0,1.3,0,2.3,0,3,0,.32,0,.57,0,.77A2.28,2.28,0,0,1,641.28,43.51Z"/>
            <path class="cls-1"
                  d="M647.69,59a1.11,1.11,0,0,1,0-.3c0-.22,0-.49,0-.82,0-.76,0-1.8,0-3.11,0-2.72-.06-6.56-.1-11.27l.2.2-28.78.06.26-.26h0v8c0,2.59,0,5.1,0,7.49l-.24-.25,20.62.12,6,.07,1.61,0,.58,0a3.2,3.2,0,0,1-.52,0l-1.56,0-5.92.06-20.78.12h-.24V59c0-2.39,0-4.9,0-7.49v-8h0l.26-.26,28.78.06h.2v.2c0,4.76-.08,8.64-.1,11.39,0,1.29,0,2.32,0,3.07,0,.32,0,.57,0,.78S647.69,59,647.69,59Z"/>
            <rect class="cls-2" y="115.15" width="57.55" height="15.5"/>
            <path class="cls-1"
                  d="M81.64,146.54a.9.9,0,0,1,0-.28c0-.2,0-.46,0-.79,0-.72,0-1.74,0-3.05,0-2.67,0-6.52-.08-11.38l.15.16-57.54.1c.11-.11-.27.26.25-.26h0v15.47l-.26-.25,41,.11,12.1.08,3.27,0,.85,0h.31a1.39,1.39,0,0,1-.27,0l-.83,0-3.21,0-12,.07-41.21.12h-.25v-.26c0-2.48,0-5,0-7.62v-7.85h0c.52-.52.15-.14.27-.26l57.54.1h.17V131c0,4.9-.06,8.79-.08,11.48,0,1.29,0,2.3,0,3,0,.32,0,.57,0,.76A2.06,2.06,0,0,1,81.64,146.54Z"/>
            <rect class="cls-2" x="440.46" y="237.27" width="57.55" height="15.5"/>
            <path class="cls-1"
                  d="M522.1,268.66a1.39,1.39,0,0,1,0-.27c0-.21,0-.47,0-.8,0-.72,0-1.74,0-3,0-2.67,0-6.52-.09-11.38l.16.16-57.55.11c.12-.12-.26.25.26-.26h0v7.86c0,2.58,0,5.13,0,7.61l-.25-.25,41,.12,12.1.07,3.27,0,.85,0h.3a.75.75,0,0,1-.27,0l-.82,0-3.21,0-12,.07-41.21.12h-.26V253.19h0l.26-.27,57.55.11h.16v.15c0,4.9-.07,8.79-.09,11.48,0,1.29,0,2.3,0,3,0,.32,0,.57,0,.77S522.11,268.67,522.1,268.66Z"/>
            <path class="cls-1"
                  d="M237.57,327.29a1.58,1.58,0,0,1,0-.28c0-.2,0-.46,0-.79,0-.72,0-1.74,0-3.05,0-2.67-.05-6.52-.09-11.38l.16.16-57.55.1.26-.26h0v7.85c0,2.59,0,5.14,0,7.62L180,327l41,.11,12.1.08,3.26,0,.86,0h.3l-.27,0-.82,0-3.21,0-12,.07-41.21.12h-.26V311.82h0l.26-.26,57.55.1h.16v.16c0,4.9-.07,8.79-.09,11.48,0,1.29,0,2.3,0,3,0,.32,0,.57,0,.77S237.57,327.3,237.57,327.29Z"/>
            <path class="cls-1"
                  d="M191,53.87s0-.1,0-.28,0-.46,0-.79c0-.72,0-1.74,0-3,0-2.67-.05-6.52-.09-11.38l.16.16-57.55.1.26-.26h0v7.87c0,2.59,0,5.13,0,7.62l-.25-.25,41,.11,12.1.07,3.27,0h.85l.3,0a1.15,1.15,0,0,1-.27,0h-.82l-3.21,0-12,.07-41.21.12h-.26V38.38h0l.26-.26,57.55.1h.16v.16c0,4.9-.07,8.78-.09,11.47,0,1.3,0,2.3,0,3,0,.32,0,.57,0,.76A1,1,0,0,1,191,53.87Z"/>
            <path class="cls-3"
                  d="M567.56,429.65c-16-12.61-18.51-34.44-16.73-53.83.3-3.23.14-6.67,1.85-9.43s5.42-4.49,8.24-3c2.34,1.28,3.23,4.14,4.44,6.53a19,19,0,0,0,7.19,7.71c2,1.19,4.52,2,6.62,1,2.89-1.38,3.44-5.23,3.61-8.46l.93-18c.17-3.23.35-6.52,1.53-9.52s3.56-5.72,6.68-6.4,6.81,1.3,7.27,4.5a28.49,28.49,0,0,1-.14,4c0,1.34.55,2.86,1.8,3.31s2.61-.39,3.63-1.28c3.52-3.06,6-7.12,8.37-11.17s4.65-8.2,7.88-11.58,7.56-5.95,12.2-5.94,9.39,3.14,10.29,7.74-2,9.08-5.11,12.59a72.52,72.52,0,0,1-15.82,13.42,5.82,5.82,0,0,0-2.66,2.55c-.83,2.1,1.08,4.36,3.17,5.19,2.35.94,5,.84,7.47,1.28s5.16,1.71,6,4.14c1.13,3.38-1.82,6.67-4.67,8.78a61.82,61.82,0,0,1-18.86,9.47c-2.42.73-5,1.35-7,2.91s-3.33,4.38-2.31,6.72,4,3.24,6.46,2.92,4.82-1.53,7.23-2.29c4.53-1.41,10.24-.78,12.86,3.22,1.72,2.62,1.68,6.14.56,9.09a23.59,23.59,0,0,1-5.35,7.68,62.07,62.07,0,0,1-27.56,17.07c-10.49,3-20.07,3.38-30.07-.94"/>
            <path class="cls-1"
                  d="M573.28,417.76a288.85,288.85,0,0,1,13.28-30.45l3.89-7.8c1.28-2.56,2.55-5.09,3.95-7.5a144.29,144.29,0,0,1,8.82-13.35c3-4.11,6-7.91,8.85-11.43s5.56-6.75,8.16-9.59a114.78,114.78,0,0,1,13.26-12.48c1.67-1.34,3-2.35,3.92-3l1-.75a1.9,1.9,0,0,1,.37-.24l-.33.29-1,.8c-.89.69-2.2,1.72-3.85,3.09a121.5,121.5,0,0,0-13.09,12.58c-2.57,2.85-5.26,6.09-8.08,9.62s-5.81,7.34-8.8,11.45a146.2,146.2,0,0,0-8.76,13.32c-1.38,2.39-2.64,4.91-3.93,7.47s-2.57,5.17-3.88,7.8A295.11,295.11,0,0,0,573.8,418"/>
            <path class="cls-1"
                  d="M594.57,372a6.9,6.9,0,0,1-.24-1.39c-.11-.91-.24-2.21-.37-3.83-.27-3.24-.49-7.72-.72-12.67s-.5-9.41-.82-12.64c-.16-1.61-.3-2.91-.4-3.81a6.76,6.76,0,0,1-.1-1.41,6.82,6.82,0,0,1,.33,1.37c.17.89.38,2.19.58,3.8.43,3.23.78,7.71,1,12.66s.4,9.3.54,12.67c.08,1.52.14,2.8.19,3.83A6.21,6.21,0,0,1,594.57,372Z"/>
            <path class="cls-1"
                  d="M636.48,366.66a9.55,9.55,0,0,1-1.66.1c-1.07,0-2.62.07-4.53.18-3.82.19-9.09.64-14.88,1.38s-11,1.67-14.76,2.44c-1.88.37-3.39.71-4.44.94a9.09,9.09,0,0,1-1.64.3,8.47,8.47,0,0,1,1.58-.53c1-.3,2.54-.7,4.41-1.13,3.74-.87,9-1.85,14.77-2.61a146,146,0,0,1,14.94-1.21c1.92-.06,3.47,0,4.55,0A7.94,7.94,0,0,1,636.48,366.66Z"/>
            <path class="cls-1"
                  d="M573.84,417a2.42,2.42,0,0,1-.26-.53c-.17-.41-.37-.92-.62-1.54-.54-1.34-1.26-3.3-2.12-5.73-1.72-4.87-3.89-11.66-6.19-19.2s-4.4-14.34-6-19.23c-.8-2.38-1.45-4.34-1.94-5.79-.2-.64-.37-1.16-.51-1.58a2,2,0,0,1-.15-.57,1.93,1.93,0,0,1,.26.52c.17.42.37.93.62,1.54.53,1.34,1.26,3.3,2.12,5.74,1.72,4.86,3.89,11.66,6.19,19.19s4.4,14.34,6,19.24c.8,2.38,1.45,4.34,1.94,5.79.2.63.37,1.15.51,1.58A2,2,0,0,1,573.84,417Z"/>
            <path class="cls-1"
                  d="M630,402.46a2.09,2.09,0,0,1-.56.2l-1.63.44-6,1.57C616.69,406,609.7,407.91,602,410s-14.74,4-19.84,5.2c-2.55.61-4.62,1.09-6.06,1.39l-1.66.33a2.32,2.32,0,0,1-.58.08,2.09,2.09,0,0,1,.56-.2l1.63-.44,6-1.57c5.07-1.33,12.06-3.24,19.78-5.37s14.74-4,19.84-5.19c2.55-.61,4.62-1.09,6.06-1.39l1.66-.33A2.32,2.32,0,0,1,630,402.46Z"/>
            <path class="cls-2"
                  d="M76.37,298s-8.05,2.78.16,20,14,25.8,14,25.8,1.43,4-1.9,4.51S78,347.48,76.41,351.5c-1.65,4.18,1.31,8.24,7.42,11.89s19.21,12.16,20.39,12.93,2.3,2.63.08,3.35-18.71,2-17.64,9.78,19.78,15.18,21.81,16,2.5,1.73,2.3,2.85-5.78,1-10.46,1.59-10,2-9,6.46,11.94,14,39,17.41l12.66.75L150.18,424c14-23.45,13.19-38,10.3-41.48s-7.32-.22-10.64,3.12-6.67,7.81-7.68,7.27-1.41-1.44-.83-3.56,6.27-21.41.79-27.05-16.63,6.57-18.57,7.88-2.7-.74-2.59-2.12,1.48-17,2.36-24-.5-11.89-4.8-13.16c-4.15-1.22-7.56,5.36-10,7.66s-4.73-1.27-4.73-1.27-3.2-9.83-11.73-26.91-15.83-12.28-15.83-12.28"/>
            <path class="cls-1"
                  d="M143.57,437.53c-6.21-12.57-16.87-35.09-26.13-54.37s-17.65-36.73-23.79-49.33c-3.08-6.28-5.57-11.37-7.3-14.91-.85-1.75-1.52-3.11-2-4.05l-.51-1.06c-.11-.24-.16-.37-.16-.37s.08.12.2.35l.54,1,2,4c1.77,3.49,4.3,8.57,7.41,14.85,6.21,12.57,14.64,30,23.89,49.27s19.88,41.83,26,54.42"/>
            <path class="cls-1"
                  d="M86.52,353.82a4.45,4.45,0,0,1,.88.27c.55.2,1.35.5,2.33.89,2,.78,4.63,1.92,7.56,3.24l7.5,3.4,2.27,1a3.73,3.73,0,0,1,.82.41,4.45,4.45,0,0,1-.88-.27c-.55-.19-1.35-.5-2.32-.9-2-.79-4.62-2-7.55-3.29l-7.51-3.34-2.28-1A3.73,3.73,0,0,1,86.52,353.82Z"/>
            <path class="cls-1"
                  d="M108.77,362.25c-.1,0,2-5.66,4.73-12.56s5-12.45,5.09-12.41-2,5.66-4.73,12.56S108.87,362.29,108.77,362.25Z"/>
            <path class="cls-1"
                  d="M121.65,392.5a4.54,4.54,0,0,1,.53-.76l1.56-2c1.31-1.7,3.11-4.06,5-6.73s3.54-5.15,4.71-6.95l1.38-2.13a3.77,3.77,0,0,1,.55-.76,4.81,4.81,0,0,1-.42.83c-.29.53-.72,1.29-1.28,2.21-1.11,1.84-2.71,4.35-4.61,7s-3.74,5-5.11,6.68c-.69.82-1.25,1.49-1.66,1.93A4.1,4.1,0,0,1,121.65,392.5Z"/>
            <path class="cls-1"
                  d="M99.84,389.31a3.59,3.59,0,0,1,.87,0l2.34.25c2,.22,4.69.57,7.7,1s5.72.78,7.68,1.08l2.33.37a4.39,4.39,0,0,1,.84.19,3.14,3.14,0,0,1-.86,0l-2.34-.25c-2-.23-4.7-.57-7.7-1s-5.73-.79-7.69-1.09l-2.32-.37A3.8,3.8,0,0,1,99.84,389.31Z"/>
            <path class="cls-1"
                  d="M107.82,417.46a6.05,6.05,0,0,1,1.1.06l3,.31c2.53.28,6,.69,9.88,1.16s7.35.93,9.87,1.28l3,.43a6.08,6.08,0,0,1,1.09.22,7.63,7.63,0,0,1-1.11-.06l-3-.31c-2.53-.28-6-.69-9.88-1.17s-7.34-.93-9.86-1.27l-3-.44A5.43,5.43,0,0,1,107.82,417.46Z"/>
            <path class="cls-1"
                  d="M135.1,420.65a5.92,5.92,0,0,1,.65-1c.49-.67,1.12-1.55,1.88-2.62,1.59-2.22,3.77-5.29,6.07-8.74s4.33-6.64,5.77-9l1.71-2.74a6.68,6.68,0,0,1,.67-1,7,7,0,0,1-.54,1.06c-.36.67-.91,1.63-1.6,2.81-1.38,2.35-3.36,5.56-5.68,9s-4.53,6.51-6.17,8.69c-.83,1.08-1.51,2-2,2.55A8.91,8.91,0,0,1,135.1,420.65Z"/>
        </g>
        <g id="Plant">
            <path class="cls-4"
                  d="M73.21,390.19c-4.72-5.57-5.35-14.51-4.65-21.77s2.38-14.58,1.23-21.79c-.68-4.26-2.33-8.34-2.89-12.63s.23-9.13,3.55-11.9c3.82-3.18,9.83-2.43,13.8.56s6.28,7.67,8,12.35c3.69,10.27,5.05,21.66,2,32.15s-10.15,19.86-20.6,23"/>
            <path class="cls-4"
                  d="M98.26,402.84c.78-2.69,2.44-5.29,5-6.4s5.77-.49,8.5.5,5.42,2.33,8.32,2.5,6.18-1.19,7-4c.82-2.61-.75-5.39-2.72-7.29A17.22,17.22,0,0,0,96.22,395"/>
            <g class="cls-5">
                <path d="M98.26,402.84c.78-2.69,2.44-5.29,5-6.4s5.77-.49,8.5.5,5.42,2.33,8.32,2.5,6.18-1.19,7-4c.82-2.61-.75-5.39-2.72-7.29A17.22,17.22,0,0,0,96.22,395"/>
            </g>
            <path class="cls-4"
                  d="M75.26,414.5c-4.26-4.05-4.05-11.09-1.92-16.57s6.76-9.68,11.94-12.46a37.86,37.86,0,0,1,33-1.07,15.64,15.64,0,0,0-12.65,7.43c-2.34,3.88-2.86,8.59-4.79,12.68a20,20,0,0,1-25.55,10"/>
            <path class="cls-6"
                  d="M71,435.87a2.89,2.89,0,0,1,0-.64c0-.42,0-1.05,0-1.84,0-1.6.2-3.91.55-6.75a88.09,88.09,0,0,1,1.8-9.89A45.18,45.18,0,0,1,77.8,405.3,47.55,47.55,0,0,1,92.91,389c1.18-.81,2.32-1.43,3.31-2s1.89-.95,2.61-1.3l1.7-.7a2.89,2.89,0,0,1,.61-.21,3.36,3.36,0,0,1-.57.31l-1.65.79c-.71.37-1.57.82-2.56,1.37s-2.08,1.22-3.24,2a48.68,48.68,0,0,0-14.87,16.22c-4.33,7.57-5.52,15.54-6.4,21.13-.39,2.82-.6,5.12-.71,6.71q-.08,1.13-.12,1.83A4.09,4.09,0,0,1,71,435.87Z"/>
            <path class="cls-4"
                  d="M30,374.76c-8.73,5.27-8.7,10.06-7.24,14.58s6.81,7.67,11.25,6c2.51-1,4.33-3.14,5.89-5.34s3-4.53,5.18-6.11,5.34-2.18,7.52-.61"/>
            <g class="cls-5">
                <path d="M30,374.76c-8.73,5.27-8.7,10.06-7.24,14.58s6.81,7.67,11.25,6c2.51-1,4.33-3.14,5.89-5.34s3-4.53,5.18-6.11,5.34-2.18,7.52-.61"/>
            </g>
            <path class="cls-4"
                  d="M23.42,380.54c2.28-3.16,7.92-4.07,11.48-2.5s6.16,4.7,8.5,7.81,4.6,6.4,7.84,8.57,7.75,2.95,11,.77a9.43,9.43,0,0,0,3.72-6.45,21.25,21.25,0,0,0-.51-7.61c-.77-3.66-2-7.49-5-9.81-3.27-2.59-7.8-2.71-12-2.58-4.78.16-9.64.52-14.12,2.17s-9.07,5.24-11,9.63"/>
            <path class="cls-6"
                  d="M63.38,435.42a5,5,0,0,1-.06-.75c0-.55,0-1.27-.09-2.17-.06-1.94-.15-4.64-.25-8s-.25-7.37-.5-11.81-.58-9.32-1.26-14.39A46.14,46.14,0,0,0,59.78,391a37.88,37.88,0,0,0-2.66-6.39,34.6,34.6,0,0,0-7-9.33,27.69,27.69,0,0,0-6.51-4.47c-.84-.42-1.52-.68-2-.86a3.12,3.12,0,0,1-.69-.31,6.86,6.86,0,0,1,.73.21,15.86,15.86,0,0,1,2,.78A25.72,25.72,0,0,1,50.33,375a34,34,0,0,1,7.21,9.38,38.1,38.1,0,0,1,2.73,6.46,46,46,0,0,1,1.47,7.39c.68,5.1,1,10,1.22,14.44s.32,8.45.39,11.82.08,6.08.08,8c0,.9,0,1.62,0,2.16A4,4,0,0,1,63.38,435.42Z"/>
            <path class="cls-6"
                  d="M67.27,435.42a1.13,1.13,0,0,1-.1-.24c0-.2-.13-.44-.22-.74a27.54,27.54,0,0,1-.68-2.86,48.71,48.71,0,0,1-.68-10.8,65.26,65.26,0,0,1,2.62-15.84c1.75-5.79,4.24-12,6.44-18.55a81.29,81.29,0,0,0,4.07-19.11,129.57,129.57,0,0,0,.37-16c-.14-4.56-.38-8.24-.52-10.79-.07-1.24-.12-2.22-.16-2.94,0-.31,0-.56,0-.76a1,1,0,0,1,0-.26,1,1,0,0,1,0,.26c0,.2,0,.45.08.76.07.71.15,1.68.26,2.92.21,2.55.5,6.23.69,10.8a126.56,126.56,0,0,1-.26,16.05,80.56,80.56,0,0,1-4.06,19.23c-2.2,6.62-4.7,12.77-6.47,18.53A66.59,66.59,0,0,0,66,420.79a51.58,51.58,0,0,0,.51,10.75c.22,1.26.41,2.23.58,2.88.07.3.13.54.18.74A1.27,1.27,0,0,1,67.27,435.42Z"/>
        </g>
        <g id="Fence">
            <rect class="cls-1" x="396.27" y="276.16" width="8.67" height="159.37"/>
            <path  class="cls-4" d="M409.37,270.71a8.74,8.74,0,1,1-8.74-8.74A8.74,8.74,0,0,1,409.37,270.71Z"/>
            <rect class="cls-1" x="568.55" y="276.16" width="8.67" height="159.37"/>
            <path class="cls-4" d="M581.64,270.71A8.74,8.74,0,1,1,572.9,262,8.73,8.73,0,0,1,581.64,270.71Z"/>
            <rect class="cls-4" x="371.52" y="291.54" width="222.11" height="39.74"/>
            <polygon class="cls-3"
                     points="396.66 291.54 396.27 292.19 373.45 331.28 371.52 331.28 371.52 291.54 396.66 291.54"/>
            <polygon class="cls-3"
                     points="452.8 291.54 429.57 331.28 399.22 331.28 408.45 315.49 422.45 291.54 452.8 291.54"/>
            <polygon class="cls-3" points="508.91 291.54 485.68 331.28 455.33 331.28 478.56 291.54 508.91 291.54"/>
            <polygon class="cls-3" points="565.02 291.55 541.79 331.28 511.45 331.28 534.68 291.55 565.02 291.55"/>
            <polygon class="cls-3" points="593.63 291.55 593.63 331.28 567.56 331.28 590.8 291.55 593.63 291.55"/>
            <rect class="cls-4" x="371.52" y="352.93" width="222.11" height="39.74"/>
            <polygon class="cls-3"
                     points="396.66 352.93 396.27 353.59 373.45 392.67 371.52 392.67 371.52 352.93 396.66 352.93"/>
            <polygon class="cls-3"
                     points="452.8 352.93 429.57 392.67 399.22 392.67 408.45 376.88 422.45 352.93 452.8 352.93"/>
            <polygon class="cls-3" points="508.91 352.93 485.68 392.67 455.33 392.67 478.56 352.93 508.91 352.93"/>
            <polygon class="cls-3" points="565.02 352.94 541.79 392.67 511.45 392.67 534.68 352.94 565.02 352.94"/>
            <polygon class="cls-3" points="593.63 352.94 593.63 392.67 567.56 392.67 590.8 352.94 593.63 352.94"/>
            <path class="cls-6"
                  d="M593.63,331.28s0-.24,0-.69,0-1.13,0-2c0-1.77,0-4.35-.05-7.72,0-6.76-.07-16.67-.13-29.34l.23.23L371.54,292h0l.44-.44v39.74l-.44-.44,158.12.19,46.89.13,12.67.06,3.29,0,1.14,0s-.36,0-1.08,0l-3.24,0-12.57.06-46.79.13-158.43.19h-.43v-.43c0-12.76,0-26.13,0-39.74v-.44h.46l222.09.21h.23v.23c-.05,12.73-.1,22.68-.13,29.48,0,3.34,0,5.91-.05,7.67,0,.84,0,1.48,0,1.94S593.63,331.28,593.63,331.28Z"/>
            <path class="cls-6"
                  d="M593.63,392.67s0-.24,0-.69,0-1.12,0-2c0-1.77,0-4.36-.05-7.73,0-6.76-.07-16.67-.13-29.34l.23.23-222.09.21h0l.44-.44v39.74l-.44-.43,158.12.19,46.89.12,12.67.06,3.29,0,1.14,0-1.08,0-3.24,0-12.57.06-46.79.12-158.43.19h-.43v-.43c0-12.76,0-26.13,0-39.74v-.44h.46l222.09.21h.23v.23c-.05,12.73-.1,22.68-.13,29.48q0,5-.05,7.67,0,1.26,0,1.95C593.65,392.46,593.63,392.67,593.63,392.67Z"/>
        </g>
        <g id="Floor">
            <path class="cls-6"
                  d="M644.23,435.53c0,.14-140.49.26-313.76.26s-313.79-.12-313.79-.26,140.47-.27,313.79-.27S644.23,435.38,644.23,435.53Z"/>
        </g>
        <g id="Sign">
            <rect class="cls-1" x="105.71" y="192.73" width="9.1" height="242.79"/>
            <path class="cls-6"
                  d="M114.82,435.53s0-.44,0-1.27,0-2.06,0-3.67c0-3.22,0-8,0-14.08,0-12.23,0-29.93-.07-51.85,0-43.81-.07-104.47-.11-171.93l.26.26h-9.11l.26-.26c-.09,117-.17,215.3-.19,242.79l-.07-.06,6.88,0c1.5,0,2.23,0,2.23,0l-2.19,0-6.92,0h-.06v-.07c0-27.49-.1-125.79-.2-242.79v-.26h9.63v.26C115,260.27,115,321,115,364.85c0,21.89-.06,39.57-.08,51.79,0,6.09,0,10.81,0,14,0,1.59,0,2.8,0,3.63S114.82,435.53,114.82,435.53Z"/>
            <circle class="cls-4" cx="110.27" cy="149.91" r="52.94" transform="translate(-51.46 57.84) rotate(-24.01)"/>
            <path class="cls-7"
                  d="M157.92,147.92a4.08,4.08,0,0,1-.09-.78c0-.55-.09-1.3-.16-2.26,0-.5-.07-1-.11-1.66s-.2-1.27-.3-2a35.25,35.25,0,0,0-1-4.91A45.29,45.29,0,0,0,151,123.71a47.26,47.26,0,0,0-56.78-20.15A49.91,49.91,0,0,0,88,106.27c-1,.54-2,1.17-2.94,1.76a25.75,25.75,0,0,0-2.85,2,54.55,54.55,0,0,0-5.35,4.55A51.87,51.87,0,0,0,72.26,120a45.52,45.52,0,0,0-6.75,13,46.83,46.83,0,0,0,0,29.78,45.55,45.55,0,0,0,6.74,13,43.2,43.2,0,0,0,10,10,24.85,24.85,0,0,0,2.85,2c1,.59,1.94,1.22,2.94,1.76a49.91,49.91,0,0,0,6.16,2.71A47.38,47.38,0,0,0,151,172.11a45,45,0,0,0,5.29-12.61,34.85,34.85,0,0,0,1-4.9c.11-.72.24-1.38.3-2s.08-1.16.11-1.66c.07-1,.12-1.71.16-2.26a3.87,3.87,0,0,1,.09-.77,7.45,7.45,0,0,1,0,.77c0,.55,0,1.3-.07,2.27,0,.5,0,1.06-.06,1.67s-.17,1.28-.26,2a34.62,34.62,0,0,1-.93,5,45.06,45.06,0,0,1-5.2,12.79,48.23,48.23,0,0,1-63.78,17.94c-1-.55-2-1.19-3-1.78a23.84,23.84,0,0,1-2.91-2,53.94,53.94,0,0,1-5.46-4.63,54,54,0,0,1-4.72-5.57,46.52,46.52,0,0,1-6.89-13.25,47.61,47.61,0,0,1,0-30.36,46.63,46.63,0,0,1,6.88-13.25,44.22,44.22,0,0,1,10.18-10.19,24.63,24.63,0,0,1,2.91-2c1-.59,2-1.23,3-1.78a48.93,48.93,0,0,1,31.51-4.77,47.92,47.92,0,0,1,32.27,22.71,44.94,44.94,0,0,1,5.2,12.79,34.62,34.62,0,0,1,.93,5c.09.72.21,1.39.26,2s.05,1.17.06,1.67c0,1,.06,1.72.07,2.27A7.71,7.71,0,0,1,157.92,147.92Z"/>
            <rect class="cls-8" x="82.7" y="141.95" width="55.13" height="11.5"/>
        </g>
    </g>
</svg>