<svg xmlns="http://www.w3.org/2000/svg" xmlns:xlink="http://www.w3.org/1999/xlink" viewBox="0 0 500 500"><defs><style>.cls-1{isolation:isolate;}.cls-2{fill:#f7fdf8;}.cls-10,.cls-14,.cls-3,.cls-8{fill:none;stroke-miterlimit:10;}.cls-3,.cls-8{stroke:#133a50;}.cls-4{fill:#b38367;}.cls-11,.cls-5{fill:#c7c7c7;mix-blend-mode:multiply;}.cls-6{fill:#e8e8e8;}.cls-7{fill:#fff;}.cls-10,.cls-8{stroke-width:2px;}.cls-8{opacity:0.4;}.cls-9{fill:#3ccd1c;}.cls-10{stroke:#3ccd1c;}.cls-11{opacity:0.21;}.cls-12{fill:#89e076;}.cls-13{fill:url(#linear-gradient);}.cls-14{stroke:#fff;}.cls-15{fill:url(#linear-gradient-2);}.cls-16{fill:url(#linear-gradient-3);}.cls-17{fill:url(#linear-gradient-4);}.cls-18{fill:url(#linear-gradient-5);}.cls-19{fill:#d1d3d4;}</style><linearGradient id="linear-gradient" x1="-337.23" y1="-253.35" x2="-266.57" y2="-328.07" gradientTransform="matrix(0.2, -0.98, 0.98, 0.2, 749.45, 104.49)" gradientUnits="userSpaceOnUse"><stop offset="0" stop-color="#00c3b7"/><stop offset="1" stop-color="#a4f4c3"/></linearGradient><linearGradient id="linear-gradient-2" x1="463.56" y1="392.67" x2="520.84" y2="332.1" gradientTransform="matrix(-0.98, -0.18, -0.18, 0.98, 942.18, 97.9)" gradientUnits="userSpaceOnUse"><stop offset="0" stop-color="#0082a1"/><stop offset="1" stop-color="#75d1b3"/></linearGradient><linearGradient id="linear-gradient-3" x1="235.14" y1="308.66" x2="297.88" y2="242.32" gradientTransform="matrix(-0.5, -0.87, -0.56, 0.32, 708.58, 483.81)" gradientUnits="userSpaceOnUse"><stop offset="0" stop-color="#00a59b"/><stop offset="1" stop-color="#90d6ab"/></linearGradient><linearGradient id="linear-gradient-4" x1="-343.82" y1="-243.17" x2="-273.16" y2="-317.89" gradientTransform="matrix(-0.2, -0.98, -0.98, 0.2, 100.99, 104.49)" xlink:href="#linear-gradient"/><linearGradient id="linear-gradient-5" x1="422.53" y1="407.75" x2="479.81" y2="347.17" gradientTransform="matrix(1, 0, 0, 1, 0, 0)" xlink:href="#linear-gradient-3"/></defs><g class="cls-1"><g id="Layer_2" data-name="Layer 2"><g id="BACKGROUND"><path class="cls-2" d="M421.88,12.57c-21.4,10.68-43,25.34-49.05,50.71-5.69,24-2.6,49.24-23.47,65.89-19.24,15.36-45.34,20.53-68.85,23.52-38.23,4.88-77.37,11.46-100.8,47-9.76,14.8-15.74,32.22-26.93,45.87-21.43,26.15-57.24,33.25-90.23,34.68-21.1.92-42.06,1.34-62.55,4.05V500H500V6.78C476.3-6.62,442.54,2.27,421.88,12.57Z"/><line class="cls-3" x1="43.74" y1="441.3" x2="459.22" y2="441.3"/></g><g id="OBJECTS"><rect class="cls-4" x="129.16" y="86.39" width="253.12" height="354.23" rx="10.12"/><rect class="cls-5" x="146.68" y="112.55" width="225.01" height="319.62" rx="3.15"/><rect class="cls-6" x="143.21" y="106.15" width="225.01" height="319.62" rx="3.15"/><path class="cls-7" d="M370.85,420.89l-218.6,6.63a3.14,3.14,0,0,1-3.25-3L139.5,111.3a3.17,3.17,0,0,1,3.06-3.25l218.6-6.63a3.17,3.17,0,0,1,3.25,3.06l9.49,313.17A3.14,3.14,0,0,1,370.85,420.89Z"/><rect class="cls-8" x="178.19" y="174.12" width="33.35" height="33.35"/><polygon class="cls-9" points="182.62 184.21 193.25 200.55 222.75 169.54 193.97 188.97 182.62 184.21"/><line class="cls-10" x1="233.25" y1="174.12" x2="329.87" y2="174.12"/><line class="cls-10" x1="233.25" y1="185.05" x2="329.87" y2="185.05"/><line class="cls-10" x1="233.25" y1="195.97" x2="329.87" y2="195.97"/><line class="cls-10" x1="233.25" y1="206.89" x2="286.85" y2="206.89"/><rect class="cls-8" x="178.19" y="236.12" width="33.35" height="33.36"/><polygon class="cls-9" points="182.62 246.21 193.25 262.55 222.75 231.54 193.97 250.97 182.62 246.21"/><line class="cls-10" x1="233.25" y1="236.12" x2="329.87" y2="236.12"/><line class="cls-10" x1="233.25" y1="247.04" x2="329.87" y2="247.04"/><line class="cls-10" x1="233.25" y1="257.96" x2="329.87" y2="257.96"/><line class="cls-10" x1="233.25" y1="268.89" x2="268.87" y2="268.89"/><rect class="cls-8" x="178.19" y="298.12" width="33.35" height="33.36"/><polygon class="cls-9" points="182.62 308.2 193.25 324.54 222.75 293.54 193.97 312.97 182.62 308.2"/><line class="cls-10" x1="233.25" y1="298.12" x2="329.87" y2="298.12"/><line class="cls-10" x1="233.25" y1="309.04" x2="329.87" y2="309.04"/><line class="cls-10" x1="233.25" y1="319.96" x2="329.87" y2="319.96"/><line class="cls-10" x1="233.25" y1="330.88" x2="287.32" y2="330.88"/><rect class="cls-8" x="178.19" y="360.11" width="33.35" height="33.36"/><polygon class="cls-9" points="182.62 370.2 193.25 386.54 222.75 355.53 193.97 374.96 182.62 370.2"/><line class="cls-10" x1="233.25" y1="360.11" x2="329.87" y2="360.11"/><line class="cls-10" x1="233.25" y1="371.04" x2="329.87" y2="371.04"/><line class="cls-10" x1="233.25" y1="381.96" x2="329.87" y2="381.96"/><line class="cls-10" x1="233.25" y1="392.88" x2="268.87" y2="392.88"/><path class="cls-5" d="M316.16,86.38l4.4,24.22a5.47,5.47,0,0,1-5.38,6.45H214.12a5.47,5.47,0,0,1-5.37-6.45l4.4-24.22Z"/><path class="cls-6" d="M312,117.05H210.9a5.47,5.47,0,0,1-5.38-6.45l6.09-33.45A5.47,5.47,0,0,1,217,72.66h88.88a5.47,5.47,0,0,1,5.38,4.49l6.09,33.45A5.47,5.47,0,0,1,312,117.05Z"/><path class="cls-11" d="M313,86.6H209.89l-4.37,24a5.47,5.47,0,0,0,5.38,6.45H312a5.47,5.47,0,0,0,5.38-6.45Z"/><rect class="cls-5" x="194.8" y="94.85" width="139.72" height="25.97" rx="4.8"/><rect class="cls-6" x="191.57" y="91.08" width="139.71" height="25.97" rx="4.8"/><path class="cls-6" d="M280.35,82.55V71.82a15.7,15.7,0,1,0-31.39,0V82.55Zm-15.7-18.27a4.19,4.19,0,1,1-4.18,4.19A4.19,4.19,0,0,1,264.65,64.28Z"/><rect class="cls-12" x="211.54" y="134.26" width="101.89" height="16.74"/><path class="cls-13" d="M424.18,400.13c-2.38-.65-21.17-47.57-37.87-68.14-5.3-6.53-14.35-15.51-16.66-23.8-3.41-12.24,17.31-.43,20.09,1.72,7.68,5.95,15.24,12.76,23.15,18.82,5.92,4.53,11.3,9.62,13.46,17,1.32,4.48.7,8.7.89,13.27.23,5.61,2.45,10.46,4.59,15.53C435.29,382.69,424.18,400.13,424.18,400.13Z"/><path class="cls-14" d="M385.62,321.83c19.73,23.48,37.36,46,38.56,78.3"/><path class="cls-15" d="M421.74,403.3c-3.39-34.74-16.53-54.53-33.66-63.33s-45.56-3.62-22.44,9.3c18.63,10.42,11.84,19.55,22.84,27.24,7.12,5,13.33,1.76,16,14.63C405.88,397.76,421.74,403.3,421.74,403.3Z"/><path class="cls-14" d="M377.59,342.08s30.45,9.55,44.15,61.22"/><path class="cls-16" d="M417.88,383.33c14-19.08,16.45-33.42,15.15-52.16-1.73-24.8-17-45-16.61-17.22.3,20.68-8.78,17.92-5.82,30.29,1.91,8,7.06,11.43,2.71,19.64C411.08,368.1,417.88,383.33,417.88,383.33Z"/><path class="cls-14" d="M423.32,311.19s10.3,36.88-5.44,72.14"/><path class="cls-17" d="M417.57,408.6C420,408,438.74,361,455.44,340.45c5.3-6.53,14.35-15.5,16.66-23.79,3.41-12.24-17.31-.44-20.09,1.72-7.68,5.94-15.24,12.76-23.15,18.81-5.92,4.53-11.3,9.63-13.46,17-1.32,4.47-.7,8.7-.89,13.26-.23,5.62-2.45,10.46-4.59,15.53C406.46,391.16,417.57,408.6,417.57,408.6Z"/><path class="cls-14" d="M456.13,330.3c-19.73,23.48-37.36,46-38.56,78.3"/><path class="cls-18" d="M416.42,408.6c9.54-33.58,26-50.7,44.44-56.3s45.47,4.59,20.41,13.17c-20.2,6.91-15.14,17.12-27.34,22.72-7.89,3.62-13.43-.66-18.38,11.52C433,406,416.42,408.6,416.42,408.6Z"/><path class="cls-14" d="M470.8,356.25s-31.67,3.95-54.38,52.35"/><path class="cls-19" d="M434.6,440.89H408.86a1.34,1.34,0,0,1-1.32-1.09l-7.22-38.58a1.33,1.33,0,0,1,1.31-1.58h40.2a1.33,1.33,0,0,1,1.31,1.58l-7.23,38.58A1.33,1.33,0,0,1,434.6,440.89Z"/></g></g></g></svg>