<svg xmlns="http://www.w3.org/2000/svg" viewBox="0 0 500 500"><defs><style>.cls-1{fill:#f8fcf7;}.cls-2{fill:#90ea78;}.cls-3{fill:#fff;}.cls-4{fill:#89e076;}.cls-5{fill:#3ccd1c;}</style></defs><g id="Layer_2" data-name="Layer 2"><g id="BACKGROUND"><path class="cls-1" d="M421.88,12.57c-21.4,10.68-43,25.34-49.05,50.71-5.69,24-2.6,49.24-23.47,65.89-19.24,15.36-45.34,20.53-68.85,23.52-38.23,4.88-77.37,11.46-100.8,47-9.76,14.8-15.74,32.22-26.93,45.87-21.43,26.15-57.24,33.25-90.23,34.68-21.1.92-42.06,1.34-62.55,4.05V500H500V6.78C476.3-6.62,442.54,2.27,421.88,12.57Z"/></g><g id="OBJECTS"><path class="cls-2" d="M257.67,309.07s3.29,32.67,30.56,40.78,42,2.95,58.21-14c0,0-4.42,33.16-22.84,45.69,0,0,43.48-5.29,57.48-50.55,0,0,42-3,44.21-41.81,0,0,40.53-13.76,45.69-50.6s-12.53-47.9-36.11-61.9c0,0,9.45-21.14-17.3-42.14-18.75-11-40.91.87-40.91.87S366.34,99.3,316.23,97.83c-15.47,0-40.23,15.47-42.59,32.42,0,0-29.41-17.68-56.41,1.48S198,186.26,207,202.47c0,0-28.92,28-13.28,67.79S257.67,309.07,257.67,309.07Z"/><path class="cls-3" d="M339.39,265.79H302.72v-3.67q0-9.36,2.13-15.2a33.59,33.59,0,0,1,6.32-10.66q4.18-4.83,18.86-17,7.82-6.36,7.82-11.67t-3.14-8.26q-3.13-2.94-9.5-2.94a15.26,15.26,0,0,0-11.34,4.54q-4.49,4.53-5.74,15.82l-37.45-4.63q1.94-20.65,15-33.24t40.1-12.6q21,0,34,8.78,17.57,11.88,17.56,31.66a30.53,30.53,0,0,1-4.53,15.82q-4.55,7.63-18.53,18.63-9.75,7.73-12.31,12.4T339.39,265.79Zm-20.6,9.75h4.63a17.32,17.32,0,0,1,17.33,17.32h0a17.32,17.32,0,0,1-17.33,17.32h-4.63a17.31,17.31,0,0,1-17.32-17.32h0A17.31,17.31,0,0,1,318.79,275.54Z"/><circle class="cls-4" cx="60.41" cy="129.3" r="5.25"/><circle class="cls-4" cx="193.28" cy="87.64" r="8.03"/><circle class="cls-4" cx="217.75" cy="324.62" r="6.39"/><circle class="cls-4" cx="415.66" cy="370.71" r="3"/><path class="cls-4" d="M107.93,375.29a3.94,3.94,0,1,1-3.94-3.94A3.94,3.94,0,0,1,107.93,375.29Z"/><path class="cls-4" d="M397.19,79.62a3.94,3.94,0,1,1-3.93-3.94A3.93,3.93,0,0,1,397.19,79.62Z"/><path class="cls-5" d="M184.21,140.83,57.71,174.52a39.81,39.81,0,0,0-28.24,48.72l23.14,86.89A39.82,39.82,0,0,0,99,338.9c11.17,15.91,31.14,23.62,29.09,20.76a53.18,53.18,0,0,1-9.75-25.84l109.47-29.14A39.82,39.82,0,0,0,256.07,256l-23.13-86.88A39.84,39.84,0,0,0,184.21,140.83Z"/><path class="cls-3" d="M160.62,263l-27.93,8.44-.84-2.79A35.73,35.73,0,0,1,130,256.54a26.77,26.77,0,0,1,2.36-9.57q2.08-4.64,10.46-17.28,4.49-6.65,3.26-10.69a8.55,8.55,0,0,0-4.28-5.56q-3.08-1.51-7.92-.05a12.14,12.14,0,0,0-7.59,6.06q-2.39,4.49-.73,13.37l-29.59,5.09q-3.27-16.17,3.78-28.77t27.64-18.82q16-4.84,27.89-1.13,16.11,5,20.66,20.07a24.32,24.32,0,0,1,.19,13.1q-1.69,6.84-9.83,18.44-5.64,8.13-6.51,12.28A20.11,20.11,0,0,0,160.62,263Zm-13.45,12.17,3.53-1.07a13.79,13.79,0,0,1,17.18,9.21h0a13.79,13.79,0,0,1-9.21,17.18l-3.53,1.06a13.79,13.79,0,0,1-17.18-9.2h0A13.78,13.78,0,0,1,147.17,275.13Z"/></g></g></svg>