<svg xmlns="http://www.w3.org/2000/svg" viewBox="0 0 324.04 262.32"><title>Asset 1</title><g id="Layer_2" data-name="Layer 2"><g id="Objects"><path d="M79.66,229.16H53.44a16.58,16.58,0,0,0,0,33.16H79.66a16.58,16.58,0,0,0,0-33.16Z" style="fill:#f7fdf8"/><path d="M290.32,70.21H238.9a7.35,7.35,0,0,1-.84-14.65h14.45a23.28,23.28,0,0,0,0-46.55h-133a23.28,23.28,0,1,0,0,46.55h25.35A7.35,7.35,0,0,1,144,70.21H33.71A33.71,33.71,0,0,0,0,103.92H0a33.72,33.72,0,0,0,33.71,33.72H135.29a11.9,11.9,0,0,1-.29,23.61H82.55a25.07,25.07,0,0,0-25.08,25.07h0A25.08,25.08,0,0,0,82.55,211.4h61.11a8.88,8.88,0,0,1,0,17.76h-15a16.58,16.58,0,0,0,0,33.16H275.84a16.58,16.58,0,1,0,0-33.16H241.08a8.88,8.88,0,0,1,0-17.76h31.56a25.08,25.08,0,0,0,25.07-25.08h0a25.07,25.07,0,0,0-25.07-25.07H230a11.9,11.9,0,0,1-.29-23.61h60.66A33.72,33.72,0,0,0,324,103.92h0A33.72,33.72,0,0,0,290.32,70.21ZM203.69,220.28a8.89,8.89,0,0,1-8.88,8.88H187a8.88,8.88,0,0,1,0-17.76h7.84A8.88,8.88,0,0,1,203.69,220.28Zm-18-157.43a7.35,7.35,0,0,1,6.51-7.29h12a7.35,7.35,0,0,1-.84,14.65H193.07A7.36,7.36,0,0,1,185.72,62.85Z" style="fill:#f7fdf8"/><path d="M286.42,100.5a1.95,1.95,0,1,1-1.33-2.4A1.94,1.94,0,0,1,286.42,100.5Z" style="fill:#e84c3d"/><path d="M218.68,177.86l4,13.52,17-3.6-1.73,21.16,17.58-6.4-30.81,45.92a22.14,22.14,0,0,1-30.73,6h0a22.16,22.16,0,0,1-6.06-30.74Z" style="fill:#addfff"/><path d="M237.9,208.94l1.73-21.16-17,3.6-.78-2.66-26.13,38.95a13.45,13.45,0,1,0,22.34,15l23.52-35.06Z" style="fill:#d6efff"/><polygon points="252.43 145.74 238.59 143.1 234.05 159.84 216.01 148.65 213.68 167.21 189.53 123.63 228.29 102.16 252.43 145.74" style="fill:#addfff"/><polygon points="216.01 148.65 234.05 159.84 238.59 143.1 241.31 143.62 220.68 106.38 197.15 119.41 215.51 152.56 216.01 148.65" style="fill:#d6efff"/><path d="M227.65,103.83,191.29,124a7.77,7.77,0,0,1-10.56-3h0a7.77,7.77,0,0,1,3-10.56l36.36-20.14a7.77,7.77,0,0,1,10.56,3h0A7.77,7.77,0,0,1,227.65,103.83Z" style="fill:#addfff"/><path d="M225.55,99.46l-19.74,10.93a4.21,4.21,0,0,1-5.73-1.65h0a4.22,4.22,0,0,1,1.65-5.73l19.73-10.93a4.22,4.22,0,0,1,5.73,1.65h0A4.22,4.22,0,0,1,225.55,99.46Z" style="fill:#d6efff;opacity:0.5"/><path d="M286.34,167.82c-5.73.16-12.79,3.36-12.79,3.36s4-3.42,7.86-12.78,5.67-19,1-18.2-7.92,9.83-11,15.62c-5.44,10.26-10.18,13.54-10.18,13.54s1.95-3.63-.18-6.63-7.75-2.23-11.71,7.41a102.34,102.34,0,0,1-9.95,17.8l-.3.42c-.33.48-.67.95-1,1.41l-.19.26c-.36.48-.71,1-1.07,1.43l-.24.31q-.57.73-1.14,1.44l-.22.27L234,194.9l-.12.13c-.85,1-1.7,1.89-2.55,2.72a28,28,0,0,1-4.12,3.46c-5.33,3.57-12.21,4-16.31,3.87l-15.16,22.59a13.45,13.45,0,1,0,22.34,15l23.52-35.06h0s16.17-20.8,36.81-29.39c11.33-4.71,19.13-2.52,20-5.56S292.07,167.67,286.34,167.82Z" style="fill:#e84c3d"/><path d="M272.78,142.13a3.86,3.86,0,1,1-2.64-4.77A3.85,3.85,0,0,1,272.78,142.13Z" style="fill:#e84c3d"/><path d="M263.42,118.64a2.27,2.27,0,1,1-1.56-2.8A2.27,2.27,0,0,1,263.42,118.64Z" style="fill:#e84c3d"/><polygon points="186.29 161.97 196.28 159.54 193.39 169.4 186.29 161.97" style="fill:#addfff"/><polygon points="271.43 207.78 273.12 197.64 281.06 204.17 271.43 207.78" style="fill:#addfff"/><polygon points="200.17 175.28 202.46 170.33 205.61 174.79 200.17 175.28" style="fill:#addfff"/><path d="M242.74,207.18l-18.36,27.36a22.12,22.12,0,0,1-39.26-5,22.15,22.15,0,0,0,39.55,18.89l30.81-45.92Z" style="opacity:0.1"/><path d="M234.05,159.84l-.4-.41c-13.85-9-22.13-26.81-29.81-42.41h0l-13.75,7.61,23.59,42.58L216,148.65Z" style="opacity:0.1"/><path d="M260.93,183.44s-17.29,12.7-26.68,25.63-16.74,25.87-21.87,29.34c-6.1,4.12-12.5,0-12.95-5s5.93-13.37,16.45-17,25.27-16.65,30.1-24,5.07-15.39,9.9-15.72,1.65,4.64,1.65,4.64,6-3.43,11.12-11.51,6-11.68,8.33-9.24S268.9,177.06,260.93,183.44Z" style="opacity:0.2"/><path d="M267.27,181.51s5.9-3.42,10.66-5.46,10.76-1.84,11.76-3.35-7-1.15-13.26,2A27.61,27.61,0,0,0,267.27,181.51Z" style="opacity:0.2"/><path d="M237.77,199a60,60,0,0,1-13.46,10c-7.33,3.77-10.49,3.88-10.08,1.47C214.67,207.91,227.73,207.15,237.77,199Z" style="opacity:0.2"/><path d="M256.22,167.59a1.33,1.33,0,1,1-.91-1.64A1.32,1.32,0,0,1,256.22,167.59Z" style="fill:#fff;opacity:0.1"/><path d="M277.91,171.59a25.84,25.84,0,0,1,9.86-2.43c5.29-.11,9,.88,8.89,2.2s-3.11-.9-8.7-1.14A28.79,28.79,0,0,0,277.91,171.59Z" style="fill:#fff;opacity:0.1"/><path d="M248.32,177.88s-4.42,10.1-9.7,16a45,45,0,0,1-10.35,8.68,26,26,0,0,0,12.67-8.82A40.16,40.16,0,0,0,248.32,177.88Z" style="fill:#fff;opacity:0.1"/><path d="M280.72,143.56s-1.74,1.44-3.86,5.85-4.1,9.34-7.43,13.69a51.05,51.05,0,0,1-5.87,6.59s4.54-2,9.5-10S276.7,149,280.72,143.56Z" style="fill:#fff;opacity:0.1"/><path d="M270,140.42a1.6,1.6,0,1,1-1.09-2A1.6,1.6,0,0,1,270,140.42Z" style="fill:#fff;opacity:0.1"/><path d="M261.89,117.6a1,1,0,1,1-.72-1.29A1,1,0,0,1,261.89,117.6Z" style="fill:#fff;opacity:0.1"/><path d="M285.26,99.55a.77.77,0,0,1-.95.53.77.77,0,0,1-.53-1,.78.78,0,0,1,1-.53A.77.77,0,0,1,285.26,99.55Z" style="fill:#fff;opacity:0.1"/><polygon points="241.61 207.59 237.9 208.94 239.63 187.78 222.66 191.38 221.88 188.72 218.68 177.86 208.27 193.39 236.3 231.13 255.48 202.54 241.61 207.59 241.61 207.59" style="fill:#fff;opacity:0.1"/><path d="M199.87,205.9l-12,17.87c-.32.48-.59,1-.87,1.46l24.11,32.48a22.06,22.06,0,0,0,13.55-9.25l3.23-4.81Z" style="fill:#fff;opacity:0.1"/><path d="M183.15,40.73s7.8-8.23,15.32-9.5c12.19-2.05,14.24,9.46,9.71,12.93S194.37,38.57,183.15,40.73Z" style="fill:#3ccd1c"/><path d="M181.77,31.58s-.34-6.08,1.94-9.48c3.69-5.51,8.94-2.07,8.62,1S185.06,26.4,181.77,31.58Z" style="fill:#3ccd1c"/><circle cx="110.21" cy="126.57" r="56.53" transform="translate(-54.36 159.5) rotate(-60.27)" style="fill:#addfff"/><rect x="117.78" y="44.17" width="44.3" height="71.35" transform="translate(64.72 -62.63) rotate(32.46)" style="fill:#addfff"/><path d="M176,61.87,140.92,39.56a7.76,7.76,0,0,1-2.38-10.72h0a7.77,7.77,0,0,1,10.72-2.39l35.08,22.31a7.78,7.78,0,0,1,2.38,10.73h0A7.76,7.76,0,0,1,176,61.87Z" style="fill:#addfff"/><path d="M161.33,45.47l-17.46-11.1A3.85,3.85,0,0,1,142.69,29h0A3.85,3.85,0,0,1,148,27.85L165.48,39a3.87,3.87,0,0,1,1.18,5.34h0A3.85,3.85,0,0,1,161.33,45.47Z" style="fill:#d6efff;opacity:0.5"/><path d="M170.43,57l-22.7-14.43L121.4,83.92a44.1,44.1,0,1,0,22.69,14.44Z" style="fill:#d6efff"/><path d="M66.13,126.5s14.16-10.19,30.74-6c15.85,4,24.86,4.53,35.5,1.38s2,22.46-25.46,21.31S65.94,130.53,66.13,126.5Z" style="fill:#2c7c19"/><path d="M144.09,98.36s-5.39-7.79-12.29-7.14.65,9.06.65,9.06-11.73-11.91-16-8.63c-3.34,2.59,1.51,5.82,6,11.22.17.19.33.4.5.61a16.85,16.85,0,0,1-3.75,23.86c-3.81,2.73-8.92,4.95-16,6.31-10,1.93-25.61,0-37.19-7.15a44.08,44.08,0,1,0,78-28.14Z" style="fill:#3ccd1c"/><path d="M110.07,103.44a3.16,3.16,0,1,1-3.16-3.16A3.17,3.17,0,0,1,110.07,103.44Z" style="fill:#3ccd1c"/><path d="M173.59,19.18A3.16,3.16,0,1,1,170.43,16,3.17,3.17,0,0,1,173.59,19.18Z" style="fill:#3ccd1c"/><path d="M96,105.06a1.62,1.62,0,1,1-1.62-1.62A1.61,1.61,0,0,1,96,105.06Z" style="fill:#3ccd1c"/><path d="M156.58,1.62A1.62,1.62,0,1,1,155,0,1.63,1.63,0,0,1,156.58,1.62Z" style="fill:#3ccd1c"/><path d="M74.43,117.08a2.22,2.22,0,0,1-1.33-.45,2.18,2.18,0,0,1-.39-3.07l6.9-8.93L74.49,91.09a2.18,2.18,0,1,1,4.08-1.55l5.56,14.68a2.17,2.17,0,0,1-.32,2.11l-7.65,9.9A2.16,2.16,0,0,1,74.43,117.08Z" style="fill:#addfff"/><path d="M86.45,115.44a2.17,2.17,0,0,1-1.19-.35l-7.15-4.68a2.18,2.18,0,1,1,2.4-3.65l7.14,4.67a2.18,2.18,0,0,1-1.2,4Z" style="fill:#addfff"/><path d="M92.31,152.75A56.55,56.55,0,0,1,68.68,88.22a57.72,57.72,0,0,0-6.17,8A56.53,56.53,0,1,0,164.18,143.4,56.54,56.54,0,0,1,92.31,152.75Z" style="opacity:0.1"/><path d="M148.09,128.37s-2.1,27.5-29.82,35.33-41.92-10-40-17.22,12.52-6.75,29.68,3.27C124,159.14,145.18,141.48,148.09,128.37Z" style="opacity:0.1"/><path d="M117.68,135.67s12.38-3.8,13.84-13.84-4-13.7,0-15.23S146.63,131.67,117.68,135.67Z" style="opacity:0.1"/><path d="M150.64,122.63a51.83,51.83,0,0,0-4.51-16c-3.82-8-7.52-12-9.83-11.5s2.19,6.42,6.28,11.23S150.64,122.63,150.64,122.63Z" style="fill:#fff;opacity:0.1"/><path d="M140.81,133.88S135,142.41,126,145.82c0,0-11.43,3.93-12.93-.61-1.62-4.89,6-4.2,12-4.69S140.81,133.88,140.81,133.88Z" style="fill:#fff;opacity:0.1"/><circle cx="120.14" cy="94.73" r="1.87" style="fill:#fff;opacity:0.1"/><path d="M103.18,138.76a1.26,1.26,0,1,1-1.26-1.26A1.26,1.26,0,0,1,103.18,138.76Z" style="fill:#fff;opacity:0.1"/><path d="M208.16,36.66a3,3,0,1,1-3-3A3,3,0,0,1,208.16,36.66Z" style="fill:#fff;opacity:0.1"/><path d="M189.7,22.21A1.73,1.73,0,1,1,188,20.48,1.73,1.73,0,0,1,189.7,22.21Z" style="fill:#fff;opacity:0.1"/><circle cx="106.38" cy="102.71" r="1.6" style="fill:#fff;opacity:0.1"/><path d="M94.47,104.75a.61.61,0,0,1-.62.61.61.61,0,0,1-.61-.61.61.61,0,0,1,.61-.62A.62.62,0,0,1,94.47,104.75Z" style="fill:#fff;opacity:0.1"/><path d="M94.25,71.58a56.25,56.25,0,0,0-30.52,22l89.72,68.57a55.33,55.33,0,0,0,4.46-6.06A56.18,56.18,0,0,0,166.73,127Z" style="fill:#fff;opacity:0.1"/><path d="M142.84,172,57.1,106.44A56.41,56.41,0,0,0,54,131.56l65.43,50A56.68,56.68,0,0,0,142.84,172Z" style="fill:#fff;opacity:0.1"/><path d="M184.34,48.76,149.26,26.45a7.76,7.76,0,0,0-11.14,10L175.6,65l1.62-2.54a7.77,7.77,0,0,0,7.12-13.74Z" style="fill:#fff;opacity:0.1"/><path d="M156.82,94.57,168,77.07l-35.33-27L120.85,68.58l37.84,28.91C158.09,96.5,157.48,95.52,156.82,94.57Z" style="fill:#fff;opacity:0.1"/><path d="M205.43,70.08h-1.09V69a2.28,2.28,0,0,0-4.55,0v1.1H198.7a2.27,2.27,0,1,0,0,4.54h1.09v1.1a2.28,2.28,0,0,0,4.55,0v-1.1h1.09a2.27,2.27,0,1,0,0-4.54Z" style="fill:#f7e041"/><path d="M73.06,45H72v-1.1a2.28,2.28,0,0,0-4.55,0V45h-1.1a2.28,2.28,0,0,0,0,4.55h1.1v1.09a2.28,2.28,0,0,0,4.55,0V49.59h1.09a2.28,2.28,0,0,0,0-4.55Z" style="fill:#f7e041"/><path d="M282.22,228.86h-1.1v-1.1a2.27,2.27,0,0,0-4.54,0v1.1h-1.1a2.27,2.27,0,0,0,0,4.54h1.1v1.1a2.27,2.27,0,1,0,4.54,0v-1.1h1.1a2.27,2.27,0,1,0,0-4.54Z" style="fill:#f7e041"/><path d="M69.5,197.67H68.4v-1.1a2.28,2.28,0,0,0-4.55,0v1.1H62.76a2.27,2.27,0,1,0,0,4.54h1.09v1.1a2.28,2.28,0,0,0,4.55,0v-1.1h1.1a2.27,2.27,0,0,0,0-4.54Z" style="fill:#f7e041"/><path d="M109.26,45a2.35,2.35,0,1,1-2.35-2.35A2.35,2.35,0,0,1,109.26,45Z" style="fill:#addfff"/><circle cx="140.81" cy="236.77" r="5.24" style="fill:#addfff"/><path d="M234,78.54a3.29,3.29,0,1,1-3.29-3.29A3.3,3.3,0,0,1,234,78.54Z" style="fill:#addfff"/><circle cx="28.83" cy="108.88" r="3.29" style="fill:#addfff"/><circle cx="251.36" cy="253.19" r="3.45" style="fill:#addfff"/><path d="M173.37,178a3.06,3.06,0,0,0,.5-1.34,3,3,0,0,0-2.65-3.32l-8.29-.94a3,3,0,1,0-.68,6l8.3.94A3,3,0,0,0,173.37,178Z" style="fill:#f7e041"/><path d="M176.09,189.85a3,3,0,0,0-3.44-4.53l-16.44,5.54a3,3,0,0,0,1.92,5.68L174.57,191A3,3,0,0,0,176.09,189.85Z" style="fill:#f7e041"/><path d="M182.08,199a3,3,0,0,0-4.72-3.69l-7,7.78a3,3,0,1,0,4.46,4l7-7.77A4.19,4.19,0,0,0,182.08,199Z" style="fill:#f7e041"/></g></g></svg>