<svg xmlns="http://www.w3.org/2000/svg" viewBox="0 0 500 500"><defs><style>.cls-1{fill:#fff;}.cls-2{fill:#f7fdf8;}.cls-3{fill:#3ccd1c;}.cls-4{fill:#34a319;}</style></defs><g id="Layer_2" data-name="Layer 2"><g id="Layer_1-2" data-name="Layer 1"><g id="Cabinet"><path class="cls-1" d="M38.07,2.27C-29.73,28.18-20.24,480,176.48,499.66,289.22,511,610,237.72,461.45,179.75,219.79,146.43,97.75-21.37,38.07,2.27Z"/><rect class="cls-2" x="113.14" y="131.04" width="273.86" height="317.47"/><path class="cls-3" d="M112.74,231.85H131.4V148.54h18.65V93H119L69.22,329.05h43.52Z"/><path class="cls-3" d="M349,92.56v55.65H367.7v83.46h18.66v97.38h43.52L380.14,92.56Z"/><path class="cls-3" d="M299.3,329.05V343c0,7.69-5.57,13.91-12.44,13.91H212.24c-6.87,0-12.44-6.22-12.44-13.91V329.05H69.22V468.16H429.88V329.05Zm0,97.38H199.8V398.61h99.5Z"/><path class="cls-4" d="M299.3,389.65H199.8c-3.43,0-6.22,3.12-6.22,7v27.82c0,3.84,2.79,7,6.22,7h99.5c3.43,0,6.22-3.12,6.22-7V396.61C305.52,392.77,302.73,389.65,299.3,389.65Zm-6.22,27.82H206V403.56h87.06Z"/></g><polygon class="cls-3" points="111 329 151 144 111 144 111 329"/><polygon class="cls-3" points="347 139 387 329 387 139 347 139"/><rect class="cls-3" x="135" y="93" width="227" height="53"/></g></g></svg>