<?xml version="1.0" encoding="utf-8"?>
<!-- Generator: Adobe Illustrator 24.1.2, SVG Export Plug-In . SVG Version: 6.00 Build 0)  -->
<svg version="1.1" id="Layer_1" xmlns="http://www.w3.org/2000/svg" xmlns:xlink="http://www.w3.org/1999/xlink" x="0px" y="0px"
	 viewBox="0 0 303.9 267.8" style="enable-background:new 0 0 303.9 267.8;" xml:space="preserve">
<style type="text/css">
	.st0{fill:#F8FDF7;}
	.st1{clip-path:url(#SVGID_2_);}
	.st2{fill:#CAE5FF;}
	.st3{fill:#FFFFFF;}
	.st4{fill:#7CC9FF;}
	.st5{fill:#FBA275;}
	.st6{fill:#FBBB90;}
	.st7{fill:#03B8CB;}
	.st8{fill:#8FEF78;}
	.st9{fill:#254DA1;}
	.st10{fill:#FB8368;}
	.st11{fill:none;stroke:#9AE6F0;stroke-miterlimit:10;}
	.st12{fill:none;stroke:#009AAC;stroke-miterlimit:10;}
	.st13{fill:none;stroke:#FFFFFF;stroke-width:0.5;stroke-miterlimit:10;}
	.st14{fill:#3AB6A7;}
	.st15{fill:#218498;}
	.st16{fill:#D1FBFF;}
	.st17{fill:#A6D0F4;}
	.st18{fill:#3BC9FF;}
	.st19{fill:none;stroke:#FFFFFF;stroke-miterlimit:10;}
	.st20{fill:#A2ECFF;}
</style>
<g id="Layer_2_1_">
	<g id="OBJECTS">
		<path class="st0" d="M120.4,1.2c-68.3-8.8-88.1,33-88.1,33s-53.6,100.3,1.1,176.3c48,66.7,188.4,48.5,231.4,25.3
			s47.4-61.7,28.6-95.8V11.1L120.4,1.2z"/>
		<g>
			<defs>
				<path id="SVGID_1_" d="M120.4,1.2c-68.3-8.8-88.1,33-88.1,33s-53.6,100.3,1.1,176.3c48,66.7,188.4,48.5,231.4,25.3
					s47.4-61.7,28.6-95.8V11.1L120.4,1.2z"/>
			</defs>
			<clipPath id="SVGID_2_">
				<use xlink:href="#SVGID_1_"  style="overflow:visible;"/>
			</clipPath>
			<g class="st1">
				<path class="st2" d="M187.4,77.8c0,0,1.1-2,8.4-2.4c5.1,0.3,10.2,1.1,15.2,2.4c0,0-1.6,2-7.2,3.3S192,82.8,187.4,77.8z"/>
				<path class="st3" d="M165.2,109c0,0-20.2,26.7-33.5,52.3c-23.8-21.8-33.4-42.8-33.4-42.8l-16,7.6c6.6,46.6,31.4,64.8,45.3,71.5
					c1.7,1.2,3.6,2,5.6,2.4c1.3,0.5,2.6,0.9,3.9,1.2c3.2-1,6.1-2.8,8.4-5.3c12.4-7.8,33.7-25.4,41.4-44
					C197.1,127.5,189.1,100.5,165.2,109z"/>
				<path class="st4" d="M172.7,159.9c0,0-23.5,31.6-35.6,34.1c-35.1-13.3-49.9-55-53.9-68.3l-0.9,0.4c6.6,46.6,31.4,64.8,45.3,71.5
					c1.7,1.2,3.6,2,5.6,2.4c1.3,0.5,2.6,0.9,3.9,1.2c3.2-1,6.1-2.8,8.4-5.3c10.9-7,20.9-15.5,29.4-25.3L172.7,159.9z"/>
				<path class="st5" d="M83.6,106.4c0,0-15.3-3.2-15.9-2.1s0.8,3.3,0.8,3.3s-2.2,3-2,4.1c0.3,1,0.7,1.9,1.3,2.7c0,0-2,1.5-2.2,3
					c-0.1,0.9,0.2,1.8,0.8,2.6c-0.5,0.6-0.7,1.4-0.6,2.1c0.2,1.1,2.6,2.6,2.6,2.6c1.8,0.6,3.6,0.8,5.5,0.6c3-0.4,13.2-1.1,13.2-1.1
					L83.6,106.4z"/>
				<rect x="70.1" y="95.6" class="st3" width="8.5" height="38"/>
				<path class="st6" d="M94.9,120.2c-1.6-2.4-2.8-5.1-3.6-7.8c-0.6-2.3-1.5-4.6-2.8-6.6c0,0-15.1-3.6-19.6-5.8
					c-1.9,0.8-0.6,5,3.3,6.1c1.7,0.6,3.5,0.9,5.2,1.1c0,0,0.8,7.7,4.4,11c2.2,2.8,3,3.9,3,3.9l0.7,2.8L94.9,120.2z"/>
				<circle class="st3" cx="74.4" cy="140.8" r="12"/>
				<rect x="71.8" y="113.5" class="st7" width="5.2" height="20.1"/>
				<circle class="st7" cx="74.3" cy="140.6" r="9"/>
				<path class="st5" d="M67.5,122.1c0,0,6.2,1.4,7.6,0c1.1-1.4-7.4-3.3-7.4-3.3s8.3,1.5,9.1,0.3s-7.4-4-7.4-4s8.3,1.8,8.3-0.1
					c-0.3-1.9-8-4.4-8-4.4s7,1.7,7.8,0.6s-8-3.9-8-3.9l-1.7,7.1l-1,3.5L67.5,122.1z"/>
				<path class="st8" d="M214.3,96.6c0,0,13.3,4.4,19.6,7.9c4.1,5.4,12.1,150.9,12.1,150.9s-83.1,1.7-84.8,0s10.6-145.2,12.2-147.7
					s19-8,19-8L214.3,96.6z"/>
				<path class="st9" d="M177.9,36.8c-3.4,2.7-5,7.1-4.1,11.4c1.6,7.3,7.6,13.9,7.6,13.9l4.1-19.9L177.9,36.8z"/>
				<path class="st6" d="M190.9,88.1c0,0,1,8.5-1.3,14.2c-1.6,6.3,1.6,11.1,12.7,7.6s13.6-9.5,13.6-12s-1.3-19.9,0-26
					C215.6,67.5,190.9,88.1,190.9,88.1z"/>
				<path class="st10" d="M190.9,88.1c0.3,2.8,0.3,5.7,0,8.5c6.7-0.5,17.9-3,24.5-13.8c-0.2-3.6,0-7.2,0.6-10.8
					C215.6,67.5,190.9,88.1,190.9,88.1z"/>
				<path class="st6" d="M180.4,37.7c0,0-4.8,5.1-3.2,13.6s-2.2,19,1.3,28.5s8.2,13.6,15.2,13s14.9-5.4,19.6-15.5
					c3.8-9.2,8.6-30.7,2.2-38S191.5,21.9,180.4,37.7z"/>
				<path class="st3" d="M223.8,99.8c0,0-6,59.2-13,168.1h71.5c0,0-15.2-118.4-28.5-155.1C253.9,112.7,233.9,103.6,223.8,99.8z"/>
				<path class="st3" d="M184.9,101.7c0,0-14.6,78.2-7,164.9h-33.5c0,0,8.9-121.6,20.9-157.6L184.9,101.7z"/>
				<polyline class="st11" points="226.6,103.9 241.2,129.2 227.9,143.1 240.6,163.4 217.8,211.5 				"/>
				<polyline class="st11" points="179.8,106.4 165.2,136.8 174.1,143.1 166.5,163.4 172.8,203.9 				"/>
				<path class="st6" d="M209.9,173.2c0,0-12-10.4-13.9-11.4s-10.4,14.3-10.4,14.3s6,6,12,7l3.2-0.6l6.6,3.5L209.9,173.2z"/>
				<path class="st3" d="M253.9,112.7c0,0,38.6,41.8,41.8,86.1c0,0,2.5,13.3-19.6,17.7s-72.8-28.5-72.8-28.5s-1.9-8.9,6.3-17.1
					l54.4,8.9L253.9,112.7z"/>
				<path class="st5" d="M196,161.8c0,0-10.8-1-16.1,1.3s-8.9,6.3-8.2,7s5.7-4.1,9.5-4.4s4.8,0.3,4.8,0.3s-7.6,1.3-11.1,5.1
					s-4.4,7-2.5,6.6s5.4-5.4,8.5-6.3c1.5-0.4,3-0.9,4.4-1.6c0,0-7.6,4.1-8.2,6.6s-2.5,6.3-0.3,6.6s2.2-5.4,4.1-6.6l3.8-2.5
					c-1.1,1.3-1.6,3-1.5,4.6c0,3.2,2.8,4,2.8,2c0-3.1,0.6-3.8,0.6-3.8l0.3-0.3L196,161.8z"/>
				<path class="st12" d="M184.6,115l0.9,5.7l11-5l10.1,6.8c0,0,7.4-4.6,12.4-17"/>
				<path class="st4" d="M295.6,198.8c-0.2-2.8-0.5-5.5-1-8.3c-1.8,8.3-7,17.6-21.1,20.5c-26.7,3.1-65.4-22.6-70.5-26
					c-0.1,1,0,2,0.2,3c0,0,50.7,32.9,72.8,28.5S295.6,198.8,295.6,198.8z"/>
				<path class="st4" d="M131.8,161.3c0,0,7.4,10.6,7.4,17.8C139.1,179.1,145.1,169.1,131.8,161.3z"/>
				<path class="st4" d="M262.3,181.8c0,0,11.3,6.3,14.5,12.7C276.8,194.5,277.7,182.9,262.3,181.8z"/>
				<path class="st4" d="M133.3,162.6c0,0,8.6,2.4,11.8,6.3C145,168.9,143.4,161.3,133.3,162.6z"/>
				<path class="st4" d="M262.9,182c0,0,8.9-1.1,13.2,1.3C276.1,183.3,271.8,177,262.9,182z"/>
				<path class="st10" d="M206.1,44.2c-1.1-0.3-18.7-7.4-18.7-7.4l-6.5,0.4c-0.1,0.2-0.3,0.4-0.4,0.6c-1.6,1.9-2.6,4.1-3.1,6.5
					c1.4,1.5,4.1,3,9.2,3.8c11.8,1.9,23.1,5.2,24.8,17.1C214.1,56.6,207.2,44.5,206.1,44.2z"/>
				<path class="st9" d="M182,25.4c0,0-13.6,4.1-7.9,13s14.2,4.4,24.7,9.2s10.9,8.2,11.2,13.3s-0.7,10,0.8,10.3s2.2,0.4,2.9-1.5
					s1.8-6.8,5-7.4c1.6-0.4,3.2-0.5,4.9-0.5c0,0,5.1-10.1,3.5-18.3c-1.6-7.6-7-7.6-7-7.6s-1.3-7.9-7.6-10.8S197.9,19,182,25.4z"/>
				<path class="st11" d="M217.1,172c0,0,37.2,6.9,42.7,8.8"/>
				<path class="st3" d="M175.9,70.4c3.6-2.2,7.9-2.8,11.9-1.8c7,1.7,15.8,4,19.3,2.2c0.9,0.7,4.4,10.8,3.9,11.9
					s-8.8,13.4-21.3,10.7S175.5,72.7,175.9,70.4z"/>
				<path class="st4" d="M210.9,82.8c0.1-0.7,0-1.4-0.2-2.1c-3,4.6-7.3,8.2-12.5,10.2c-4.8,1.9-10.2,1.7-14.8-0.6
					c1.7,1.6,3.9,2.6,6.1,3.1C202.1,96.2,210.4,83.8,210.9,82.8z"/>
				<path class="st4" d="M178.8,76.7c2.3-0.7,4.8-1.2,7.2-1.3c3.1,0,14.1,2,14.1,2S188,75.4,178.8,76.7z"/>
				<path class="st13" d="M206.7,71.7c0,0,11-9.5,12.1-8.6c1.1,0.9,0.6,2.8,0.6,2.8s-5.9,12.3-9.4,16.5"/>
				<path class="st6" d="M213.4,67.8c0,0,4.3-10.7,10.3-7.1s-6.1,17.5-9.1,14.5S213.4,67.8,213.4,67.8z"/>
				<path class="st10" d="M216.5,71.4c0,0,0.7-8.4,6.1-8.1c1.1,0.3,0,2.6,0,2.6s0.3-2.3-1.5-1.5s-1.7,1.4-1.7,1.4s1.4-1.1,2,0
					s-1.4,4.5-2.4,4.4s-1.1-1.4-1.1-1.4L216.5,71.4z"/>
				<rect x="134.8" y="223.4" class="st9" width="22.1" height="2.6"/>
				<rect x="134.8" y="229.8" class="st14" width="22.6" height="6.6"/>
				<rect x="132.3" y="226.7" class="st9" width="28.1" height="4.4"/>
				<rect x="108" y="225.4" class="st14" width="59.6" height="2.4"/>
				<rect x="140.7" y="167.8" class="st3" width="11.5" height="4.6"/>
				<rect x="142.6" y="113.2" class="st3" width="8.1" height="27.6"/>
				<rect x="141.6" y="113.2" class="st9" width="10.1" height="4.6"/>
				<rect x="139.4" y="125.4" class="st14" width="14.7" height="43.6"/>
				<rect x="139.1" y="171.7" class="st9" width="14.6" height="2.2"/>
				<path class="st14" d="M139.6,241.4c-22.9-0.4-41.1-19.2-40.8-42.1c0.3-22.4,18.4-40.4,40.8-40.8v-19.1
					c-33.4,0-60.5,27.1-60.5,60.5s27.1,60.5,60.5,60.5V241.4z"/>
				<polygon class="st15" points="189.3,262 189.3,249.3 167.8,235.2 122.7,235.2 122.7,262 				"/>
				<rect x="114.4" y="258" class="st9" width="85.9" height="6.7"/>
				<circle class="st3" cx="126.4" cy="251" r="10.7"/>
				<path class="st9" d="M132.6,251c0,3.4-2.7,6.1-6.1,6.1c-3.4,0-6.1-2.7-6.1-6.1s2.7-6.1,6.1-6.1c0,0,0,0,0,0
					C129.8,244.9,132.6,247.6,132.6,251z"/>
				<path class="st3" d="M113.7,226.9c0,3.5-2.8,6.4-6.4,6.4s-6.4-2.8-6.4-6.4s2.8-6.4,6.4-6.4C110.9,220.5,113.7,223.4,113.7,226.9
					C113.7,226.9,113.7,226.9,113.7,226.9z"/>
				<path class="st9" d="M111,226.9c0,2-1.6,3.7-3.6,3.7s-3.7-1.6-3.7-3.6c0-2,1.6-3.7,3.6-3.7c0,0,0,0,0,0
					C109.4,223.3,111,224.9,111,226.9z"/>
				<path class="st3" d="M148.7,149.3c0,5.9-4.8,10.7-10.7,10.7c-5.9,0-10.7-4.8-10.7-10.7c0-5.9,4.8-10.7,10.7-10.7
					C143.9,138.6,148.7,143.4,148.7,149.3C148.7,149.3,148.7,149.3,148.7,149.3z"/>
				<path class="st9" d="M144.2,149.3c0,3.4-2.7,6.1-6.1,6.1c-3.4,0-6.1-2.7-6.1-6.1s2.7-6.1,6.1-6.1c0,0,0,0,0,0
					C141.4,143.2,144.2,145.9,144.2,149.3C144.2,149.3,144.2,149.3,144.2,149.3z"/>
				<path class="st16" d="M145.5,83.2l-10.3-13.1V40.9h-8v29.3l-10.3,13.1c-0.4,0.5-0.3,1.3,0.2,1.7c0.2,0.2,0.5,0.3,0.8,0.3h26.7
					c0.7,0,1.2-0.6,1.2-1.3C145.8,83.7,145.7,83.4,145.5,83.2z"/>
				<rect x="127.2" y="40.9" class="st17" width="8" height="2.5"/>
				<rect x="126.3" y="39.6" class="st16" width="9.7" height="2.7"/>
				<path class="st18" d="M142,82l-4.2-5.3c-2.9,2.4-6.1,1.8-10.1,0.2c-0.9-0.4-1.8-0.6-2.8-0.6l-4.5,5.7c-0.3,0.4-0.2,1,0.2,1.3
					c0.2,0.1,0.4,0.2,0.6,0.2h20.1c0.5,0,0.9-0.4,0.9-0.9C142.2,82.4,142.1,82.2,142,82z"/>
				<path class="st16" d="M105.6,60.8V37.7h-6.3v23.2c-6.6,1.7-10.6,8.5-8.9,15.2c1.7,6.6,8.5,10.6,15.2,8.9
					c6.6-1.7,10.6-8.5,8.9-15.2C113.3,65.3,109.9,61.9,105.6,60.8z"/>
				<rect x="99.3" y="37.7" class="st17" width="6.3" height="2"/>
				<path class="st16" d="M106.2,39h-7.6c-0.7,0-1.3-0.6-1.3-1.3c0,0,0,0,0,0l0,0c0-0.7,0.6-1.3,1.3-1.3c0,0,0,0,0,0h7.6
					c0.7,0,1.3,0.6,1.3,1.3v0l0,0C107.6,38.4,107,39,106.2,39z"/>
				<path class="st18" d="M92,74.2c0.7,5.7,5.9,9.8,11.6,9.1c4.7-0.6,8.5-4.3,9.1-9.1H92z"/>
				<rect x="73.9" y="84.6" class="st18" width="92.9" height="4.8"/>
				<rect x="0.5" y="166.1" class="st19" width="65.4" height="94"/>
				<rect x="10.8" y="176.4" class="st19" width="45.2" height="14.3"/>
				<rect x="10.8" y="199" class="st19" width="45.2" height="14.3"/>
				<path class="st19" d="M48.9,163.8l-10.3-13.1v-29.3h-8v29.3l-10.3,13.1c-0.4,0.5-0.3,1.3,0.2,1.7c0.2,0.2,0.5,0.3,0.8,0.3H48
					c0.7,0,1.2-0.6,1.2-1.2C49.2,164.3,49.1,164,48.9,163.8z"/>
			</g>
		</g>
		<circle class="st20" cx="62.3" cy="69.7" r="7.8"/>
		<circle class="st20" cx="41.9" cy="96.5" r="2.8"/>
	</g>
</g>
</svg>
