<svg xmlns="http://www.w3.org/2000/svg" xmlns:xlink="http://www.w3.org/1999/xlink" viewBox="0 0 303.85 267.84"><defs><clipPath id="clip-path"><path d="M120.36,1.22C52.06-7.59,32.22,34.27,32.22,34.27s-53.61,100.26,1.11,176.28c48,66.73,188.39,48.47,231.36,25.34s47.37-61.7,28.65-95.85V11.13Z" style="fill:#f8fdf7"/></clipPath></defs><title>Asset 1</title><g id="Layer_2" data-name="Layer 2"><g id="OBJECTS"><path d="M120.36,1.22C52.06-7.59,32.22,34.27,32.22,34.27s-53.61,100.26,1.11,176.28c48,66.73,188.39,48.47,231.36,25.34s47.37-61.7,28.65-95.85V11.13Z" style="fill:#f8fdf7"/><g style="clip-path:url(#clip-path)"><path d="M187.43,77.79s1.1-2,8.44-2.39a86.37,86.37,0,0,1,15.24,2.39s-1.65,2-7.16,3.3S192,82.75,187.43,77.79Z" style="fill:#cae5ff"/><path d="M165.24,109S145,135.67,131.76,161.34C108,139.57,98.35,118.55,98.35,118.55l-16,7.59c6.57,46.62,31.37,64.85,45.27,71.53a13.89,13.89,0,0,0,5.65,2.36,35,35,0,0,0,3.94,1.18,20.35,20.35,0,0,0,8.4-5.26c12.4-7.77,33.71-25.37,41.4-44C197.11,127.51,189.09,100.5,165.24,109Z" style="fill:#fff"/><path d="M172.74,159.87S149.23,191.45,137.11,194C102,180.67,87.16,139,83.18,125.74l-.86.4c6.57,46.62,31.37,64.85,45.27,71.53a13.89,13.89,0,0,0,5.65,2.36,35,35,0,0,0,3.94,1.18,20.35,20.35,0,0,0,8.4-5.26A138.27,138.27,0,0,0,175,170.62Z" style="fill:#7cc9ff"/><path d="M83.56,106.36s-15.31-3.19-15.9-2.07.83,3.34.83,3.34-2.16,3-2,4.07a9.39,9.39,0,0,0,1.27,2.69s-2,1.49-2.16,3a3.45,3.45,0,0,0,.8,2.56,3.08,3.08,0,0,0-.62,2.14c.19,1.08,2.6,2.56,2.6,2.56a12,12,0,0,0,5.5.58c3-.42,13.2-1.1,13.2-1.1Z" style="fill:#fba275"/><rect x="70.14" y="95.56" width="8.54" height="38.01" style="fill:#fff"/><path d="M94.93,120.21a29.59,29.59,0,0,1-3.58-7.85,23.92,23.92,0,0,0-2.76-6.61S73.44,102.17,69,100c-1.93.83-.55,5,3.3,6.06a23.21,23.21,0,0,0,5.24,1.1s.82,7.72,4.4,11c2.21,2.75,3,3.86,3,3.86l.69,2.75Z" style="fill:#fbbb90"/><circle cx="74.41" cy="140.86" r="11.98" transform="translate(-80.31 178.81) rotate(-75.94)" style="fill:#fff"/><rect x="71.79" y="113.46" width="5.23" height="20.11" style="fill:#03b8cb"/><circle cx="74.27" cy="140.63" r="9" style="fill:#03b8cb"/><path d="M67.52,122.13s6.2,1.38,7.58,0c1.1-1.37-7.44-3.3-7.44-3.3s8.26,1.51,9.09.27-7.44-4-7.44-4,8.27,1.79,8.27-.14c-.28-1.92-8-4.4-8-4.4s7,1.65,7.85.55-8-3.86-8-3.86l-1.65,7.13-1,3.48Z" style="fill:#fba275"/><path d="M214.3,96.6s13.3,4.43,19.63,7.91c4.11,5.38,12.13,150.88,12.13,150.88s-83.14,1.69-84.83,0,10.55-145.18,12.24-147.71,19-8,19-8Z" style="fill:#8fef78"/><path d="M177.9,36.78a11.45,11.45,0,0,0-4.11,11.39c1.58,7.28,7.6,13.93,7.6,13.93l4.11-19.94Z" style="fill:#254da1"/><path d="M190.88,88.06s1,8.54-1.26,14.24c-1.59,6.33,1.58,11.08,12.66,7.59s13.61-9.49,13.61-12-1.27-19.94,0-26C215.57,67.48,190.88,88.06,190.88,88.06Z" style="fill:#fbbb90"/><path d="M190.88,88.06a45.19,45.19,0,0,1,0,8.47c6.69-.48,17.9-3,24.46-13.81a58.51,58.51,0,0,1,.55-10.81C215.57,67.48,190.88,88.06,190.88,88.06Z" style="fill:#fb8368"/><path d="M180.44,37.73s-4.75,5.06-3.17,13.61-2.21,19,1.27,28.49,8.23,13.61,15.19,13,14.88-5.38,19.62-15.51c3.8-9.18,8.55-30.7,2.22-38S191.51,21.9,180.44,37.73Z" style="fill:#fbbb90"/><path d="M223.8,99.77s-6,59.19-13,168.07h71.54s-15.2-118.38-28.49-155.1C253.87,112.74,233.93,103.56,223.8,99.77Z" style="fill:#fff"/><path d="M184.87,101.67s-14.56,78.18-7,164.9H144.35S153.22,145,165.24,109Z" style="fill:#fff"/><polyline points="226.65 103.88 241.21 129.2 227.91 143.13 240.57 163.39 217.79 211.5" style="fill:none;stroke:#9ae6f0;stroke-miterlimit:10"/><polyline points="179.8 106.41 165.24 136.8 174.11 143.13 166.51 163.39 172.84 203.9" style="fill:none;stroke:#9ae6f0;stroke-miterlimit:10"/><polygon points="190.25 118.76 192.84 124.61 182.29 219.73 189.93 231.75 200.47 220.83 199.04 124.75 202.91 119.39 196.47 115.7 190.25 118.76" style="fill:#254da1"/><path d="M209.87,173.2s-12-10.45-13.92-11.4-10.45,14.25-10.45,14.25,6,6,12,7l3.16-.63,6.65,3.48Z" style="fill:#fbbb90"/><path d="M253.87,112.74s38.61,41.78,41.78,86.1c0,0,2.53,13.29-19.62,17.72s-72.8-28.48-72.8-28.48-1.9-8.87,6.33-17.1L264,179.85Z" style="fill:#fff"/><path d="M196,161.8s-10.77-1-16.15,1.27-8.86,6.33-8.23,7,5.7-4.11,9.5-4.43,4.75.32,4.75.32-7.6,1.27-11.08,5.06-4.43,7-2.53,6.65,5.38-5.38,8.54-6.33a31.36,31.36,0,0,0,4.43-1.58s-7.59,4.11-8.23,6.64-2.53,6.33-.31,6.65,2.21-5.38,4.11-6.65l3.8-2.53a6.74,6.74,0,0,0-1.48,4.64c0,3.17,2.75,4,2.75,2,0-3.06.63-3.8.63-3.8l.32-.32Z" style="fill:#fba275"/><path d="M184.55,115l.95,5.7,11-5,10.13,6.75s7.39-4.64,12.45-17" style="fill:none;stroke:#009aac;stroke-miterlimit:10"/><path d="M295.65,198.84c-.2-2.77-.53-5.53-1-8.26-1.77,8.27-7,17.64-21.11,20.52-26.73,3.08-65.42-22.59-70.5-26a13.52,13.52,0,0,0,.18,3S253.87,221,276,216.56,295.65,198.84,295.65,198.84Z" style="fill:#7cc9ff"/><path d="M131.76,161.34s7.37,10.65,7.37,17.81C139.13,179.15,145.05,169.14,131.76,161.34Z" style="fill:#7cc9ff"/><path d="M262.33,181.79s11.31,6.31,14.46,12.74C276.79,194.53,277.69,182.94,262.33,181.79Z" style="fill:#7cc9ff"/><path d="M133.26,162.62s8.63,2.39,11.75,6.25C145,168.87,143.36,161.34,133.26,162.62Z" style="fill:#7cc9ff"/><path d="M262.91,182s8.9-1.05,13.24,1.34C276.15,183.3,271.78,177,262.91,182Z" style="fill:#7cc9ff"/><path d="M206.07,44.19c-1.11-.28-18.73-7.44-18.73-7.44l-6.48.42c-.14.19-.29.36-.42.56a14.82,14.82,0,0,0-3.1,6.5c1.44,1.47,4.13,3,9.17,3.81,11.84,1.93,23.14,5.24,24.79,17.08C214.05,56.58,207.17,44.46,206.07,44.19Z" style="fill:#fb8368"/><path d="M182,25.38s-13.61,4.12-7.91,13,14.24,4.43,24.68,9.18S209.66,55.77,210,60.83s-.74,10,.84,10.34,2.22.43,2.85-1.47,1.79-6.76,5-7.39a21.34,21.34,0,0,1,4.85-.53s5.07-10.12,3.48-18.35c-1.58-7.6-7-7.6-7-7.6s-1.26-7.91-7.6-10.76S197.85,19.05,182,25.38Z" style="fill:#254da1"/><path d="M217.08,172s37.19,6.88,42.69,8.81" style="fill:none;stroke:#9ae6f0;stroke-miterlimit:10"/><path d="M175.86,70.44a15.69,15.69,0,0,1,11.93-1.83c7,1.65,15.8,4,19.28,2.2.92.74,4.41,10.84,3.86,11.94s-8.81,13.4-21.3,10.65S175.49,72.65,175.86,70.44Z" style="fill:#fff"/><path d="M210.93,82.75a4.74,4.74,0,0,0-.21-2.1,25.94,25.94,0,0,1-12.46,10.18,17.89,17.89,0,0,1-14.76-.56,13.61,13.61,0,0,0,6.13,3.13C202.12,96.15,210.38,83.85,210.93,82.75Z" style="fill:#7cc9ff"/><path d="M178.8,76.69A28.82,28.82,0,0,1,186,75.4c3.12,0,14.14,2,14.14,2S188,75.4,178.8,76.69Z" style="fill:#7cc9ff"/><path d="M206.71,71.73s11-9.55,12.12-8.63.55,2.75.55,2.75S213.5,78.16,210,82.38" style="fill:none;stroke:#fff;stroke-miterlimit:10;stroke-width:0.5px"/><path d="M213.39,67.83s4.28-10.65,10.26-7.08-6.05,17.48-9.08,14.51S213.39,67.83,213.39,67.83Z" style="fill:#fbbb90"/><path d="M216.53,71.45s.69-8.4,6.06-8.12c1.1.27,0,2.62,0,2.62s.28-2.35-1.51-1.52-1.7,1.42-1.7,1.42,1.42-1.14,2,0S220,70.35,219,70.22s-1.1-1.38-1.1-1.38Z" style="fill:#fb8368"/><rect x="134.75" y="223.4" width="22.14" height="2.63" style="fill:#254da1"/><rect x="134.75" y="229.75" width="22.57" height="6.58" style="fill:#3ab6a7"/><rect x="132.34" y="226.69" width="28.05" height="4.38" style="fill:#254da1"/><rect x="108.01" y="225.37" width="59.61" height="2.41" style="fill:#3ab6a7"/><rect x="140.72" y="167.84" width="11.51" height="4.6" style="fill:#fff"/><rect x="142.64" y="113.16" width="8.11" height="27.62" style="fill:#fff"/><rect x="141.65" y="113.16" width="10.08" height="4.6" style="fill:#254da1"/><rect x="139.35" y="125.43" width="14.68" height="43.61" style="fill:#3ab6a7"/><rect x="139.13" y="171.68" width="14.57" height="2.19" style="fill:#254da1"/><path d="M139.57,241.37a41.43,41.43,0,0,1,0-82.85V139.46a60.49,60.49,0,0,0,0,121Z" style="fill:#3ab6a7"/><polygon points="189.32 261.97 189.32 249.26 167.84 235.23 122.69 235.23 122.69 261.97 189.32 261.97" style="fill:#218498"/><rect x="114.37" y="258.03" width="85.91" height="6.7" style="fill:#254da1"/><circle cx="126.42" cy="251.01" r="10.68" transform="translate(-140.47 162.91) rotate(-45)" style="fill:#fff"/><path d="M132.56,251a6.14,6.14,0,1,1-6.14-6.13A6.14,6.14,0,0,1,132.56,251Z" style="fill:#254da1"/><path d="M113.71,226.91a6.36,6.36,0,1,1-6.36-6.36A6.35,6.35,0,0,1,113.71,226.91Z" style="fill:#fff"/><path d="M111,226.91a3.65,3.65,0,1,1-3.65-3.65A3.65,3.65,0,0,1,111,226.91Z" style="fill:#254da1"/><path d="M148.72,149.32A10.69,10.69,0,1,1,138,138.64,10.68,10.68,0,0,1,148.72,149.32Z" style="fill:#fff"/><path d="M144.17,149.32a6.14,6.14,0,1,1-6.13-6.14A6.13,6.13,0,0,1,144.17,149.32Z" style="fill:#254da1"/><path d="M145.52,83.24,135.18,70.17V40.88h-8V70.17L116.86,83.24a1.23,1.23,0,0,0,1,2h26.74A1.23,1.23,0,0,0,145.52,83.24Z" style="fill:#d1fbff"/><rect x="127.19" y="40.88" width="7.99" height="2.54" style="fill:#a6d0f4"/><rect x="126.35" y="39.62" width="9.67" height="2.69" style="fill:#d1fbff"/><path d="M142,82l-4.16-5.26c-2.95,2.37-6.08,1.75-10.14.19a7.74,7.74,0,0,0-2.78-.61L120.44,82a.93.93,0,0,0,.73,1.5h20.11A.93.93,0,0,0,142,82Z" style="fill:#3bc9ff"/><path d="M105.57,60.81V37.65H99.26V60.81a12.42,12.42,0,1,0,6.31,0Z" style="fill:#d1fbff"/><rect x="99.26" y="37.65" width="6.31" height="1.99" style="fill:#a6d0f4"/><path d="M106.23,39H98.6a1.32,1.32,0,0,1-1.33-1.32h0a1.32,1.32,0,0,1,1.33-1.33h7.63a1.33,1.33,0,0,1,1.33,1.33h0A1.33,1.33,0,0,1,106.23,39Z" style="fill:#d1fbff"/><path d="M92,74.17a10.43,10.43,0,0,0,20.7,0Z" style="fill:#3bc9ff"/><rect x="73.95" y="84.58" width="92.91" height="4.77" style="fill:#3bc9ff"/><rect x="0.5" y="166.11" width="65.37" height="94.01" style="fill:none;stroke:#fff;stroke-miterlimit:10"/><rect x="10.78" y="176.39" width="45.17" height="14.32" style="fill:none;stroke:#fff;stroke-miterlimit:10"/><rect x="10.78" y="198.98" width="45.17" height="14.32" style="fill:none;stroke:#fff;stroke-miterlimit:10"/><path d="M48.93,163.8,38.6,150.73V121.44h-8v29.29L20.27,163.8a1.23,1.23,0,0,0,1,2H48A1.22,1.22,0,0,0,48.93,163.8Z" style="fill:none;stroke:#fff;stroke-miterlimit:10"/></g><circle cx="62.29" cy="69.72" r="7.75" style="fill:#a2ecff"/><circle cx="41.93" cy="96.47" r="2.75" style="fill:#a2ecff"/></g></g></svg>