<?xml version="1.0" encoding="utf-8"?>
<!-- Generator: Adobe Illustrator 23.0.3, SVG Export Plug-In . SVG Version: 6.00 Build 0)  -->
<svg version="1.1" xmlns="http://www.w3.org/2000/svg" xmlns:xlink="http://www.w3.org/1999/xlink" x="0px" y="0px"
	 viewBox="0 0 1920 1080" style="enable-background:new 0 0 1920 1080;" xml:space="preserve">
<style type="text/css">
	.st0{fill-rule:evenodd;clip-rule:evenodd;fill:#F7FDF7;}
	.st1{fill-rule:evenodd;clip-rule:evenodd;fill:#FFFFFF;}
	.st2{fill-rule:evenodd;clip-rule:evenodd;fill:#E6E6E6;}
	.st3{fill-rule:evenodd;clip-rule:evenodd;fill:#333333;}
	.st4{fill:none;stroke:#C1272D;stroke-width:17;stroke-linecap:round;stroke-linejoin:round;stroke-miterlimit:10;}
</style>
<g id="Layer_2">
	<path class="st0" d="M700,484c46-109-20.47-191.13,104.77-224.13c138.05-36.37,102.95-34.95,196.79-33
		c52.36,1.95,166.54,46.84,213.83,120c47.29,73.16,0.96,166.2-37.29,214.8C1136.29,614.79,1206,691,1179,763
		c-28.89,77.04-68.08,141.7-147,93s-159.45-72.96-205.96-157.17C779.53,614.63,735.71,732.7,635,662C565.66,613.32,684,521,700,484z
		"/>
</g>
<g id="Layer_1">
	<path class="st1" d="M1135.02,288.6c-0.4,1.19,0,452.76,0,466.27c-3.98,14.31-17.89,16.7-17.89,16.7s-328.14,0.79-344.63,0
		c-12.13-2.39-16.7-16.7-16.7-16.7s-0.45-360.74,0-374.45c0.8-24.24,10.73-33.39,10.73-33.39s56.85-57.63,71.56-67.97
		c13.04-8.5,16.69-5.96,16.69-5.96s-0.3,71.45,0,84.67c-1.19,8.74-11.92,11.92-11.92,11.92s-58.04,0-60.82,0
		c-3.98,1.19-6.36,3.58-7.16,9.54c-0.79,8.95,7.16,10.73,7.16,10.73s29.81,1.2,62.01,0c28.22-4.77,31-31,31-31v-88.25
		c0,0,229.36-0.79,242.08,0C1129.85,271.51,1135.42,287.41,1135.02,288.6z"/>
	<polygon class="st2" points="746,380 842,380 866,357 866,261 832,270 746,354 	"/>
	<path class="st3" d="M1155.29,286.22c0,0-3.39-31.22-38.16-35.78c-115.27-3.33-115.25-0.63-257.58,0c0,0-19.97-0.79-39.35,15.5
		c-14.31,13.02-70.36,70.36-70.36,70.36s-13.71,16.8-14.31,38.16c-0.6,21.37,0,383.99,0,383.99s5.96,27.53,33.39,32.2
		c35.77,0.79,349.4,0,349.4,0s29.22-0.2,36.97-33.39C1154.99,704.69,1155.29,286.22,1155.29,286.22z M1135.02,288.6
		c-0.4,1.19,0,452.76,0,466.27c-3.98,14.31-17.89,16.7-17.89,16.7s-328.14,0.79-344.63,0c-12.13-2.39-16.7-16.7-16.7-16.7
		s-0.45-360.74,0-374.45c0.8-24.24,10.73-33.39,10.73-33.39s56.85-57.63,71.56-67.97c13.04-8.5,16.69-5.96,16.69-5.96
		s-0.3,71.45,0,84.67c-1.19,8.74-11.92,11.92-11.92,11.92s-58.04,0-60.82,0c-3.98,1.19-6.36,3.58-7.16,9.54
		c-0.79,8.95,7.16,10.73,7.16,10.73s29.81,1.2,62.01,0c28.22-4.77,31-31,31-31v-88.25c0,0,229.36-0.79,242.08,0
		C1129.85,271.51,1135.42,287.41,1135.02,288.6z"/>
	<line class="st4" x1="838.98" y1="488" x2="904.34" y2="553.36"/>
	<line class="st4" x1="904.34" y1="488" x2="838.98" y2="553.36"/>
	<line class="st4" x1="985.92" y1="488" x2="1051.29" y2="553.36"/>
	<line class="st4" x1="1051.29" y1="488" x2="985.92" y2="553.36"/>
	<path class="st4" d="M841.5,690.5c0,0,95.42-102.1,208.02,0"/>
</g>
</svg>
