<svg xmlns="http://www.w3.org/2000/svg" id="Слой_1" data-name="Слой 1"
                                 viewBox="0 0 863.27 791.24">
                                <title>19742</title>
                                <path d="M666.37,975.59c16.72-115.5,84.7-257.94,159.32-258.89,62.12-.79,68.72,97.23,176.17,170,148.6,100.69,293.74,20.14,327.83,79.66,58,101.31-253.28,525.25-482.55,447.32C704.28,1365.16,642.78,1138.58,666.37,975.59Z"
                                      transform="translate(-577.88 -716.69)" style="fill:#f8fdf7"></path>
                                <path d="M943.51,1086.06s9,1.8,13.23,1.94,24.08-8.84,30.41-8,47.65,18.41,49.53,19.69-.88,4.1-.88,4.1l-94.86,1.13Z"
                                      transform="translate(-577.88 -716.69)" style="fill:#e3a080"/>
                                <rect x="968.32" y="1035.61" width="5.08" height="54.38"
                                      transform="translate(-979.18 -88.97) rotate(-30)" style="fill:#4e9bde"></rect>
                                <polygon points="79.95 562.65 32.67 791.24 22.26 791.24 62.35 562.15 79.95 562.65"
                                         style="fill:#696969"></polygon>
                                <polygon points="131.53 562.65 84.25 791.24 73.84 791.24 113.93 562.15 131.53 562.65"
                                         style="fill:#696969"></polygon>
                                <polygon points="214.96 562.65 262.24 791.24 272.65 791.24 232.56 562.15 214.96 562.65"
                                         style="fill:#696969"></polygon>
                                <path d="M777.51,941.5s13.83,19.6,22.38,34.44c9.7,16.83,19.22,33.44,21.33,37.18,4.27,7.6,18.53,15.5,25.26,18.39,6.2,2.66,110.32,54,111.63,53.91S947,1106,947,1106s-143.24-41.07-149.68-47-25.55-32.66-33.37-43.7c-7.45-10.51-18.87-27.75-24.93-35.17-6.77-8.31-21-36.73-2.91-50.9C759.19,911.15,772,933.18,777.51,941.5Z"
                                      transform="translate(-577.88 -716.69)" style="fill:#e3a080"></path>
                                <path d="M1036.49,1448.89s22.42,7.07,32.35,9.33,44.9-4.56,49.08-2.11,5.33,13.12-.17,15.52-46.76,16-61.59,16-39.84,11.62-46.12,11-9.83-32.9-9.22-40.47S1036.49,1448.89,1036.49,1448.89Z"
                                      transform="translate(-577.88 -716.69)" style="fill:#353a3d"></path>
                                <path d="M1029.44,1437.06l7,11.83s-26.74,11.45-35.67,9.25l-1.71-13.69Z"
                                      transform="translate(-577.88 -716.69)" style="fill:#81807e"></path>
                                <path d="M942.43,1455.07s20.22,12,29.37,16.46,44.76,5.81,48.27,9.15,2.2,14-3.7,15.07-49.18,4.91-63.61,1.51-41.45,2.22-47.42.18-2.06-34.27.26-41.5S942.43,1455.07,942.43,1455.07Z"
                                      transform="translate(-577.88 -716.69)" style="fill:#353a3d"></path>
                                <path d="M943,1443.62l-.53,11.45s-28.64,5-36.83.87l1.27-12.55Z"
                                      transform="translate(-577.88 -716.69)" style="fill:#81807e"></path>
                                <path d="M801.27,1150.42s85.18,19.41,105.23,25.27c21.78,6.37,57,17.92,61.29,21.55,4.75,4,10,3.64,3.16,33.29S959.3,1346.83,957.9,1356c-2.08,13.66-7.7,92.91-7.7,92.91H899.38s-3.37-152.84,0-170c3.13-16-3.38-23.78-9.91-28.42s-27.37.14-144.74-20.11c-11.72-2-44-5.57-51.16-19.09-13-24.41-14.33-58.78,11.25-79.79S801.27,1150.42,801.27,1150.42Z"
                                      transform="translate(-577.88 -716.69)" style="fill:#c1465a"></path>
                                <path d="M837.58,1281.19H633.86s-14.19-.32-23.69-42.36c-10.69-47.29-32.29-205.23-32.29-205.23s5.73-14.7,95.29-12.82l160.38,208.08S839,1261.67,837.58,1281.19Z"
                                      transform="translate(-577.88 -716.69)" style="fill:#e2d2ca"></path>
                                <path d="M928.58,1086.06s8.95,1.8,13.23,1.94,24.07-8.84,30.41-8,47.65,18.41,49.52,19.69-.88,4.1-.88,4.1L926,1104.93Z"
                                      transform="translate(-577.88 -716.69)" style="fill:#eea886"/>
                                <path d="M701.66,1221.74c8.63,13.16,29.78,13.31,42,14.27,122.08,9.75,156.39,2,163.52,6.11s24.77,4.39,31.64,49.89c1.58,10.41,9.7,36.19,19.1,64,2.61,7.72,5.33,15.6,8,23.34,12.81,36.76,25.27,70.5,25.27,70.5l54.55-13.93s-19.92-59.46-23.31-68.79c-5.4-14.85-29.19-110.22-39.61-144.12-9.19-29.92-16.87-34.21-21.9-37.08-9.45-5.4-44.68-11.54-65.14-18.08s-101-20.57-101-20.57-96.34-30.68-112.46-.7C678.06,1154.5,686.06,1198,701.66,1221.74Z"
                                      transform="translate(-577.88 -716.69)" style="fill:#dd507b"/>
                                <rect x="389.76" y="390.42" width="19.01" height="400.82" style="fill:#e3e5ff"/>
                                <rect x="378.74" y="784.41" width="41.05" height="6.83" style="fill:#e3e5ff"></rect>
                                <rect x="821.6" y="390.42" width="19.01" height="400.82" style="fill:#e3e5ff"></rect>
                                <rect x="810.58" y="784.41" width="41.05" height="6.83" style="fill:#e3e5ff"></rect>
                                <rect x="337.58" y="383.7" width="525.69" height="13.43" style="fill:#f0f1fc"></rect>
                                <path d="M803.44,1148.77,679.24,1174s.38-36.6,1-78.16,12.65-75.66,15.62-99.42c10.15-81.07,81.11-99,81.11-99l24,18.6s13,38.28,13.15,60.13c0,11.38-5.48,34.65-11,56-2.06,8-4.11,15.74-5.86,22.49-2.57,9.86-4.5,17.65-4.9,21.1C788.53,1108.55,803.44,1148.77,803.44,1148.77Z"
                                      transform="translate(-577.88 -716.69)" style="fill:#3ccd1c"></path>
                                <path d="M819.58,901s-.93,2-2.3,5.23c-.57,1.34-1.22,2.87-1.92,4.54-.53,1.27-1.09,2.61-1.65,4-3.55,8.73-7.5,19.36-8.09,24.63-1.08,9.85-28.69-41.87-28.69-41.87A478.29,478.29,0,0,0,799,833.6C808.1,799,819.58,901,819.58,901Z"
                                      transform="translate(-577.88 -716.69)" style="fill:#eea886"></path>
                                <path d="M819.58,901s-.93,2-2.3,5.23c-.57,1.34-1.22,2.87-1.92,4.54-18.47-13.74-21-27.1-19.06-28.59C805.64,894.15,819.58,901,819.58,901Z"
                                      transform="translate(-577.88 -716.69)" style="fill:#a77860"></path>
                                <path d="M784.31,922.58s35.78,71.72,62.9,99.34c8.51,8.67,88.62,61.85,91.82,65.3s-12.4,13.18-12.4,13.18-97.65-42.35-104-46.56-81.39-94.95-85-107.89-.78-25.62,12.44-31.3C768.58,906.68,784.31,922.58,784.31,922.58Z"
                                      transform="translate(-577.88 -716.69)" style="fill:#eea886"></path>
                                <path d="M870.45,813.52s3.62,26,2.28,31.54-3.86,9.32-4.72,15.84c-.89,6.75.86,21.92-.84,25.52-2,4.36-11-.63-14.4,6.54s-14.2,19.42-17.77,18.76c-9.15-1.69-39.65-25-39.89-32.74s-1.81-51.13-3.62-59.79,73.78-32.92,76.37-19.29Z"
                                      transform="translate(-577.88 -716.69)" style="fill:#eea886"></path>
                                <path d="M779.55,816.47c.82-21,23.06-26.63,23.06-26.63s19.51-13.24,54.43-1.57,17,56.49,17,56.49-23.55-10.32-35-10.52c0,0-2.69,7.87-2.86,13.08l-12.42-6.86s1.64-3.55-4.56-6.12-18.84,34.82-33.07,39.95a12,12,0,0,0,0-5.75h0a158.43,158.43,0,0,1-4-21.9C780,833.75,779.12,827.24,779.55,816.47Z"
                                      transform="translate(-577.88 -716.69)" style="fill:#353a3d"></path>
                                <path d="M827,841s-1.34-14.74-15.47-9.24c-10.27,4-7.6,29,.76,31.15S827.33,853.67,827,841Z"
                                      transform="translate(-577.88 -716.69)" style="fill:#eea886"></path>
                                <path d="M803.14,1032.26c-2.06,8-4.11,15.74-5.86,22.49-13.75-16.36-38.09-76.46-38.44-77.36C762.52,983.5,801,1029.66,803.14,1032.26Z"
                                      transform="translate(-577.88 -716.69)" style="fill:#38ad1c"></path>
                                <path d="M802.16,953s-13.77-58.16-53.3-40.59,8,68.91,8,68.91Z"
                                      transform="translate(-577.88 -716.69)" style="fill:#3ce014"></path>
                                <path d="M1068.54,1021.77v-2.69h-17.19v2.69h1v59.55s-.3,7.57,7.57,7.57,7.56-7.57,7.56-7.57v-59.55Z"
                                      transform="translate(-577.88 -716.69)" style="fill:#edebe7"></path>
                                <path d="M1089.11,1021.77v-2.69h-17.19v2.69h1v59.55s-.3,7.57,7.56,7.57,7.56-7.57,7.56-7.57v-59.55Z"
                                      transform="translate(-577.88 -716.69)" style="fill:#edebe7"></path>
                                <path d="M1109.68,1021.77v-2.69h-17.2v2.69h1v59.55s-.3,7.57,7.56,7.57,7.56-7.57,7.56-7.57v-59.55Z"
                                      transform="translate(-577.88 -716.69)" style="fill:#edebe7"></path>
                                <path d="M1054.7,1039.52v41.32s-.21,5.24,5.25,5.24,5.24-5.24,5.24-5.24v-41.32Z"
                                      transform="translate(-577.88 -716.69)" style="fill:#4e9bde"></path>
                                <path d="M1075.27,1046.56v35.07s-.21,4.45,5.24,4.45,5.25-4.45,5.25-4.45v-35.07Z"
                                      transform="translate(-577.88 -716.69)" style="fill:#de4e74"></path>
                                <path d="M1095.83,1034.5v45.77s-.21,5.81,5.25,5.81,5.25-5.81,5.25-5.81V1034.5Z"
                                      transform="translate(-577.88 -716.69)" style="fill:#d2de4e"></path>
                                <rect x="473.46" y="309.07" width="86.13" height="4.03" style="fill:#9e9e9c"></rect>
                                <rect x="550.45" y="284.98" width="4.92" height="93.61" style="fill:#9e9e9c"></rect>
                                <rect x="541.99" y="378.59" width="21.83" height="5.11" style="fill:#9e9e9c"></rect>
                                <rect x="1161.71" y="1021.66" width="14.91" height="16.3"
                                      transform="translate(165.81 -1185.69) rotate(32.78)" style="fill:#9e9e9c"></rect>
                                <rect x="1204.91" y="954.56" width="14.91" height="16.3"
                                      transform="matrix(0.84, 0.54, -0.54, 0.84, 136.41, -1219.78)"
                                      style="fill:#9e9e9c"></rect>
                                <rect x="1210.27" y="949.56" width="10.62" height="16.3"
                                      transform="translate(134.17 -1222.31) rotate(32.78)" style="fill:#9e9e9c"></rect>
                                <rect x="1181.89" y="952.59" width="19.35" height="84.85"
                                      transform="matrix(0.84, 0.54, -0.54, 0.84, 150.59, -1203.38)"
                                      style="fill:#fff"></rect>
                                <path d="M1197.82,994.23a6.25,6.25,0,1,1-6.25-6.25A6.25,6.25,0,0,1,1197.82,994.23Z"
                                      transform="translate(-577.88 -716.69)" style="fill:#9e9e9c"></path>
                                <path d="M1178.69,1076.38l-3.33-7.64c15.73-6.87,24.69-15.49,26.62-25.61,3-15.53-10.68-29.46-10.83-29.61l4.62-7.16c.71.72,18.18,18.53,14.4,38.33C1207.69,1057.68,1197.1,1068.34,1178.69,1076.38Z"
                                      transform="translate(-577.88 -716.69)" style="fill:#fff"></path>
                                <rect x="1159.01" y="1064.75" width="22.15" height="10.42"
                                      transform="translate(52.06 -1137.42) rotate(27.64)" style="fill:#fff"></rect>
                                <rect x="1151.74" y="1058" width="22.15" height="2.26"
                                      transform="translate(46.18 -1135.28) rotate(27.64)" style="fill:#9e9e9c"></rect>
                                <rect x="581.26" y="372.01" width="63.02" height="11.69" style="fill:#9e9e9c"></rect>
                                <polygon points="621.36 372.01 596.36 372.01 603.65 349.88 621.36 347.03 621.36 372.01"
                                         style="fill:#fff"></polygon>
                                <path d="M1195.46,1074a6.29,6.29,0,1,1-6.28-6.28A6.29,6.29,0,0,1,1195.46,1074Z"
                                      transform="translate(-577.88 -716.69)" style="fill:#9e9e9c"></path>
                                <path d="M808.3,1398.9l-45.06,0a8.3,8.3,0,0,1-8.3-8.29l0-28.41a8.32,8.32,0,0,1,8.29-8.31l45.06,0a8.3,8.3,0,0,1,8.3,8.29l0,28.41A8.32,8.32,0,0,1,808.3,1398.9Zm-45.1-39.39a2.73,2.73,0,0,0-2.73,2.73l0,28.41a2.73,2.73,0,0,0,2.73,2.73l45-.05a2.73,2.73,0,0,0,2.73-2.73l0-28.41a2.73,2.73,0,0,0-2.73-2.73Z"
                                      transform="translate(-577.88 -716.69)" style="fill:#0e1e2b"></path>
                                <rect x="701.31" y="1386.73" width="169.03" height="121.1"
                                      transform="matrix(1, 0, 0, 1, -579.54, -715.79)" style="fill:#3ccd1c"></rect>
                                <path d="M822.37,1442.77a36.26,36.26,0,1,1-37-35.54A36.26,36.26,0,0,1,822.37,1442.77Z"
                                      transform="translate(-577.88 -716.69)" style="fill:#dbdff0"></path>
                                <rect x="779.19" y="1421.78" width="13.86" height="43.4"
                                      transform="translate(-590.06 -709.99) rotate(-0.48)" style="fill:#e56e9c"></rect>
                                <rect x="779.19" y="1421.78" width="13.86" height="43.4"
                                      transform="translate(1645.02 -71.51) rotate(89.52)" style="fill:#e56e8e"></rect>
                            </svg>