<?xml version="1.0"?>
<svg xmlns="http://www.w3.org/2000/svg" height="512px" viewBox="-78 0 1168 1168.7498" width="512px" style="user-select: auto;"><g style="user-select: auto;"><path d="m981.96875 299.253906c-79.8125-171.714844-247.277344-285.929687-436.265625-297.539062l-18.773437-1.714844-17.183594.425781c-58.320313 2.144531-115.464844 16.914063-167.496094 43.34375-138.335938 69.160157-225.535156 210.75-225.023438 365.414063v72.511718l-114.066406 190.136719c-3.621094 6.007813-3.71875 13.5-.253906 19.613281 3.445312 6.101563 9.921875 9.878907 16.9375 9.878907h121.917969l-11.816407 175.558593c-9.003906 51.945313 25.207032 101.535157 76.96875 111.542969 1.289063.246094 2.585938.371094 3.890626.371094.707031 0 1.398437-.039063 2.089843-.109375l118.574219-12.867188v173.457032c0 10.761718 8.714844 19.472656 19.472656 19.472656h467.425782c10.757812 0 19.472656-8.710938 19.472656-19.472656v-193.550782l152.183594-376.039062c33.441406-91.050781 30.546874-191.46875-8.054688-280.433594zm-28.339844 266.585938-153.320312 378.933594c-1.054688 2.78125-1.464844 5.757812-1.199219 8.710937 0 .417969-.222656.761719-.222656 1.171875v175.144531h-428.472657v-175.285156c0-.414063-.21875-.757813-.230468-1.160156-.023438-.410157.171875-.859375.125-1.339844-.261719-1.109375-.605469-2.1875-1.042969-3.246094-.207031-.832031-.476563-1.65625-.792969-2.453125-.789062-1.667968-1.8125-3.222656-3.039062-4.59375-.261719-.316406-.390625-.742187-.664063-1.035156-.28125-.292969-.445312-.328125-.667969-.523438-4.035156-3.957031-9.613281-5.941406-15.246093-5.390624l-137.070313 14.835937c-30.226562-7.621094-49.21875-37.574219-43.183594-68.167969l13.449219-198.257812c.746094-10.738282-7.34375-20.054688-18.082031-20.8125-1.597656-.105469-109.648438 0-109.648438 0l99.132813-165.304688c.179687-.40625.324219-.835937.449219-1.261718.570312-1.171876 1-2.398438 1.296875-3.660157.390625-1.28125.65625-2.585937.777343-3.90625 0-.464843.261719-.835937.261719-1.300781v-77.753906c-.535156-139.984375 78.308594-268.183594 203.476563-330.847656 47.003906-23.863282 98.605468-37.234376 151.277344-39.195313h15.585937c180.847656 5.101563 343.324219 111.832031 419.851563 275.769531 34.476562 79.636719 37.054687 169.449219 7.199218 250.929688zm0 0" data-original="#000000" class="active-path" style="user-select: auto;" data-old_color="#000000" fill="#FF4545"/><path d="m896.269531 487.089844h-34.195312l24.199219-24.199219c7.613281-7.609375 7.613281-19.933594 0-27.542969l-53.519532-53.425781 20.550782-35.578125c5.371093-9.316406 2.183593-21.222656-7.132813-26.609375l-47.285156-27.40625 47.285156-27.269531c9.316406-5.371094 12.503906-17.28125 7.132813-26.597656l-38.953126-67.464844c-5.382812-9.3125-17.296874-12.503906-26.601562-7.128906l-47.285156 27.195312v-54.542969c0-10.753906-8.722656-19.472656-19.480469-19.472656h-77.898437c-10.761719 0-19.476563 8.71875-19.476563 19.472656v54.542969l-47.296875-27.269531c-1.832031-.964844-3.792969-1.636719-5.839844-1.949219l-17.710937-17.707031c-7.585938-7.585938-19.90625-7.585938-27.511719 0l-18.582031 18.503906v-26.121094c0-10.753906-8.71875-19.472656-19.476563-19.472656h-116.777344c-10.746093 0-19.472656 8.71875-19.472656 19.472656v26.144531l-18.578125-18.503906c-7.597656-7.59375-19.921875-7.59375-27.523437 0l-82.578125 82.578125c-7.578125 7.601563-7.578125 19.902344 0 27.503907l18.5 18.589843h-26.152344c-10.757813 0-19.476563 8.71875-19.476563 19.480469v116.855469c0 10.757812 8.71875 19.472656 19.476563 19.472656h26.132813l-18.492188 18.605469c-7.582031 7.605468-7.582031 19.90625 0 27.5l82.570312 82.585937c7.609376 7.585938 19.914063 7.585938 27.519532 0l18.582031-18.507812v26.175781c0 10.761719 8.722656 19.472656 19.472656 19.472656h116.859375c10.757813 0 19.472656-8.710937 19.472656-19.472656v-26.136719l18.585938 18.503907c.269531.269531.621094.351562.894531.589843v26.515625c0 10.765625 8.722657 19.46875 19.472657 19.46875h34.199218l-24.210937 24.21875c-7.597657 7.601563-7.597657 19.929688 0 27.542969l55.117187 55.113281c7.613282 7.597656 19.925782 7.597656 27.542969 0l24.234375-24.210937v34.195312c0 10.765625 8.714844 19.476563 19.46875 19.476563h77.90625c10.753906 0 19.476562-8.710938 19.476562-19.476563v-34.195312l24.21875 24.210937c7.585938 7.597656 19.921876 7.597656 27.519532 0l55.121094-55.113281c7.613281-7.613281 7.613281-19.941406 0-27.542969l-24.199219-24.21875h34.195312c10.761719 0 19.480469-8.703125 19.480469-19.46875v-77.90625c0-10.757812-8.71875-19.476562-19.480469-19.476562zm-260.21875-257.28125c4.601563-3.464844 9.582031-6.425782 14.835938-8.796875 7.097656-3.097657 11.679687-10.097657 11.6875-17.832031v-47.179688h38.953125v47.179688c0 7.734374 4.59375 14.734374 11.691406 17.832031 5.261719 2.371093 10.234375 5.332031 14.832031 8.796875 6.226563 4.601562 14.585938 5.0625 21.292969 1.191406l41.050781-23.699219 19.476563 33.734375-41.234375 23.824219c-6.675781 3.847656-10.445313 11.289063-9.613281 18.9375l.488281 3.765625c.613281 3.15625.613281 6.390625 0 9.542969l-.488281 3.761719c-.832032 7.652343 2.9375 15.09375 9.613281 18.941406l41.234375 23.828125-19.476563 33.730469-41.050781-23.699219c-6.707031-3.875-15.066406-3.40625-21.292969 1.191406-4.597656 3.464844-9.570312 6.425781-14.832031 8.796875-7.097656 3.097656-11.691406 10.097656-11.691406 17.832031v47.167969h-38.964844v-47.167969c-.042969-2.328125-.523438-4.628906-1.394531-6.792969-.214844-.570312-.476563-1.132812-.773438-1.671874-.769531-1.59375-1.765625-3.078126-2.96875-4.382813-.3125-.410156-.652343-.800781-1-1.171875-1.605469-1.605469-3.476562-2.9375-5.539062-3.894531-5.253907-2.363281-10.234375-5.328125-14.835938-8.804688-6.230469-4.578125-14.585937-5.054687-21.296875-1.1875l-41.042968 23.707031-19.476563-33.726562 41.222656-23.828125c6.675781-3.851563 10.449219-11.289063 9.625-18.949219l-.484375-3.765625c-.632812-3.136719-.632812-6.378906 0-9.53125l.484375-3.761719c.824219-7.667968-2.949219-15.09375-9.625-18.945312l-41.222656-23.820312 19.476563-33.734376 41.042968 23.695313c6.691406 3.886719 15.050782 3.457031 21.296875-1.113281zm240.742188 335.191406h-45.769531c-8.265626.003906-15.625 5.214844-18.363282 13.015625-1.132812 3.203125-2.429687 6.347656-3.902344 9.421875-3.496093 7.445312-1.933593 16.300781 3.902344 22.101562l32.386719 32.390626-27.660156 27.578124-32.378907-32.453124c-5.804687-5.828126-14.648437-7.386719-22.097656-3.894532-3.050781 1.464844-6.183594 2.765625-9.378906 3.894532-7.867188 2.738281-13.117188 10.175781-13.066406 18.507812v45.761719h-38.960938v-45.761719c0-8.28125-5.246094-15.660156-13.066406-18.390625-3.1875-1.128906-6.328125-2.441406-9.386719-3.890625-7.433593-3.5-16.289062-1.9375-22.089843 3.890625l-32.386719 32.335937-27.578125-27.578124 32.453125-32.390626c5.832031-5.800781 7.390625-14.65625 3.894531-22.101562-1.464844-3.074219-2.761719-6.21875-3.894531-9.421875-2.765625-7.851563-10.191407-13.066406-18.503907-13.015625h-45.765624v-38.960938h10.902343c10.761719 0 19.472657-8.707031 19.472657-19.472656 0-10.757812-8.710938-19.476562-19.472657-19.476562h-30.378906c-9.605469.074218-17.675781 7.214844-18.929687 16.734375l-23.375-23.367188c-4.808594-4.804687-11.773438-6.746093-18.371094-5.144531-.878906.195312-1.71875.472656-2.546875.839844-8.652344 2.203125-14.710938 9.996094-14.683594 18.925781v50.445313h-77.90625v-50.445313c.367187-8.671875-5.371094-16.421875-13.769531-18.625-.742188-.257813-2.6875-.890625-3.425782-1.082031-6.605468-1.625-13.578124.316406-18.363281 5.136718l-35.699219 35.546876-55.089843-55.074219 35.554687-35.699219c4.804688-4.8125 6.746094-11.765625 5.144532-18.367188-.179688-.8125-.449219-1.585937-.789063-2.339843-2.121094-8.726563-9.941406-14.867188-18.933594-14.867188h-50.429687v-77.90625h50.429687c8.707031.464844 16.503907-5.300781 18.609375-13.753906.289063-.738281.910156-2.671875 1.113282-3.433594 1.601562-6.597656-.339844-13.558593-5.144532-18.363281l-35.554687-35.703125 55.089843-55.078125 35.699219 35.542969c4.808594 4.796875 11.757813 6.742187 18.363281 5.140625.875-.199219 1.726563-.484375 2.554688-.835938 8.617188-2.207031 14.640625-9.980468 14.640625-18.867187v-50.449219h77.90625v50.449219c-.367187 8.667969 5.371094 16.421875 13.769531 18.625.742188.261719 2.679688.886719 3.421875 1.078125 6.601563 1.601562 13.566407-.34375 18.359375-5.140625l35.703125-35.542969 1.445313 1.445312-29.730469 51.511719c-5.390625 9.316407-2.195313 21.226563 7.121094 26.597657l35.605469 20.570312c-.71875 2.96875-.71875 6.050781 0 9.019531.167968.804688.4375 1.59375.78125 2.335938.125.488281.441406.878906.59375 1.359375l-34.585938 19.980468c-16.546875-45.507812-64.171875-71.765624-111.492188-61.496093-47.308593 10.277343-79.75 53.933593-75.929687 102.210937 3.816406 48.269532 42.722656 86.285156 91.066406 88.988282 48.355469 2.699218 91.25-30.742188 100.425781-78.28125l25.320313 44.003906c5.382813 9.300781 17.296875 12.5 26.601563 7.121094l47.335937-27.234376v54.539063c0 10.761719 8.714844 19.476563 19.476563 19.476563h77.898437c10.757813 0 19.480469-8.714844 19.480469-19.476563v-54.539063l47.285156 27.273438c8.152344 4.59375 18.429688 2.65625 24.34375-4.601562l32.871094 32.882812-32.449219 32.347656c-5.835937 5.804688-7.398437 14.65625-3.882813 22.105469 1.453126 3.066406 2.75 6.21875 3.882813 9.425781 2.773437 7.84375 10.199219 13.066406 18.507813 13.003906h45.769531zm-389.523438-214.242188c0 32.277344-26.160156 58.425782-58.421875 58.425782-32.265625 0-58.433594-26.148438-58.433594-58.425782 0-32.265624 26.167969-58.429687 58.433594-58.429687 32.261719 0 58.421875 26.164063 58.421875 58.429687zm0 0" data-original="#000000" class="active-path" style="user-select: auto;" data-old_color="#000000" fill="#FF4545"/><path d="m682.03125 350.757812c32.265625 0 58.433594-26.148437 58.433594-58.429687 0-32.269531-26.167969-58.433594-58.433594-58.433594-32.269531 0-58.421875 26.164063-58.421875 58.433594 0 32.28125 26.152344 58.429687 58.421875 58.429687zm0-77.90625c10.757812 0 19.472656 8.726563 19.472656 19.476563 0 10.765625-8.714844 19.472656-19.472656 19.472656-10.753906 0-19.46875-8.707031-19.46875-19.472656 0-10.75 8.714844-19.476563 19.46875-19.476563zm0 0" data-original="#000000" class="active-path" style="user-select: auto;" data-old_color="#000000" fill="#FF4545"/><path d="m643.085938 545.523438c0 43.027343 34.878906 77.894531 77.898437 77.894531 43.023437 0 77.902344-34.867188 77.902344-77.894531 0-43.027344-34.878907-77.90625-77.902344-77.90625-43.019531 0-77.898437 34.878906-77.898437 77.90625zm77.898437-38.957032c21.515625 0 38.953125 17.4375 38.953125 38.957032 0 21.511718-17.4375 38.949218-38.953125 38.949218-21.511719 0-38.953125-17.4375-38.953125-38.949218 0-21.519532 17.441406-38.957032 38.953125-38.957032zm0 0" data-original="#000000" class="active-path" style="user-select: auto;" data-old_color="#000000" fill="#FF4545"/></g> </svg>
