<?xml version="1.0"?>
<svg xmlns="http://www.w3.org/2000/svg" height="512px" viewBox="-78 0 1168 1168.7498" width="512px" style="user-select: auto;"><g style="user-select: auto;"><path d="m982.058594 299.253906c-79.847656-171.734375-247.335938-285.929687-436.355469-297.539062l-19.074219-1.714844-16.882812.425781c-58.320313 2.144531-115.464844 16.914063-167.496094 43.34375-138.335938 69.160157-225.535156 210.75-225.023438 365.414063v72.511718l-114.066406 190.136719c-3.621094 6.007813-3.71875 13.5-.253906 19.613281 3.445312 6.101563 9.921875 9.878907 16.9375 9.878907h121.941406l-11.820312 175.539062c-9.046875 51.949219 25.179687 101.570313 76.949218 111.5625 1.289063.246094 2.585938.371094 3.890626.371094.707031 0 1.40625-.039063 2.113281-.109375l118.550781-12.867188v173.457032c0 10.761718 8.714844 19.472656 19.472656 19.472656h467.425782c10.757812 0 19.472656-8.710938 19.472656-19.472656v-193.550782l152.207031-376.039062c33.453125-91.035156 30.597656-191.457031-7.988281-280.433594zm-28.421875 266.585938-153.328125 378.933594c-1.0625 2.78125-1.476563 5.773437-1.199219 8.730468 0 .410156-.222656.757813-.222656 1.171875v175.125h-428.472657v-175.285156c0-.414063-.21875-.757813-.230468-1.160156-.023438-.410157.171875-.859375.125-1.339844-.261719-1.152344-.613282-2.292969-1.074219-3.398437-.207031-.75-.425781-1.488282-.710937-2.222657-.820313-1.816406-1.941407-3.5-3.289063-4.988281-.191406-.210938-.273437-.5-.464844-.71875-.199219-.214844-.21875-.117188-.316406-.191406-4.046875-4.179688-9.78125-6.28125-15.570313-5.722656l-137.0625 14.835937c-30.242187-7.617187-49.222656-37.574219-43.171874-68.167969l13.441406-198.28125c.351562-5.15625-1.359375-10.25-4.761719-14.148437-3.386719-3.894531-8.191406-6.289063-13.359375-6.640625-1.617188-.128906-109.664062 0-109.664062 0l99.148437-165.304688c.179687-.40625.324219-.835937.449219-1.261718.570312-1.167969 1-2.390626 1.296875-3.648438.390625-1.269531.65625-2.578125.777343-3.894531 0-.449219.261719-.835938.261719-1.300781v-77.777344c-.535156-139.96875 78.316407-268.167969 203.476563-330.835938 47.078125-23.898437 98.785156-37.269531 151.523437-39.207031h15.429688c180.816406 5.15625 343.257812 111.875 419.761719 275.785156 34.46875 79.625 37.042968 169.433594 7.207031 250.914063zm0 0" data-original="#000000" class="active-path" style="user-select: auto;" data-old_color="#000000" fill="#FF4545"/><path d="m763.339844 178.574219c-.347656-.207031-.628906-.542969-.988282-.738281-104.621093-81.035157-250.804687-81.035157-355.417968 0-.3125.15625-.542969.441406-.855469.644531-90.277344 69.808593-131.582031 185.824219-105.730469 296.984375 25.832032 111.140625 114.070313 197.050781 225.882813 219.882812v60.121094c-12.34375 10.992188-19.429688 26.722656-19.484375 43.238281v194.753907c0 32.28125 26.164062 58.433593 58.433594 58.433593h38.949218c32.265625 0 58.433594-26.152343 58.433594-58.433593v-194.753907c-.0625-16.515625-7.136719-32.246093-19.476562-43.238281v-60.121094c111.875-22.683594 200.242187-108.554687 226.121093-219.757812 25.871094-111.1875-15.496093-227.253906-105.867187-297.015625zm-275.363282 201.523437c1.511719-39.921875 7.695313-79.527344 18.40625-118.011718 51.183594 14.363281 105.34375 14.363281 156.550782 0 10.703125 38.484374 16.878906 78.089843 18.398437 118.011718-58.519531-39.113281-134.847656-39.113281-193.355469 0zm96.675782-224.097656c22.789062 0 46.835937 25.511719 65.367187 69.316406-42.824219 11.457032-87.902343 11.457032-130.722656 0 18.613281-43.804687 42.574219-69.316406 65.355469-69.316406zm-102.25 56.359375c-11.109375-5.011719-21.867188-10.828125-32.128906-17.410156 17.195312-10.867188 35.660156-19.617188 54.976562-26.058594-9.023438 13.707031-16.6875 28.265625-22.847656 43.46875zm181.675781-43.40625c19.289063 6.414063 37.757813 15.144531 54.953125 25.996094-10.273438 6.5625-21.027344 12.359375-32.152344 17.359375-6.152344-15.175782-13.792968-29.695313-22.800781-43.355469zm56.472656 220.753906c-.875-47.542969-7.828125-94.789062-20.652343-140.585937 18.367187-7.988282 35.886718-17.816406 52.25-29.371094 49.28125 43.46875 79.65625 104.445312 84.703124 169.957031zm-303.300781-169.957031c16.34375 11.546875 33.824219 21.382812 52.164062 29.371094-12.84375 45.796875-19.78125 93.042968-20.664062 140.585937h-116.292969c5.058594-65.527343 35.476563-126.507812 84.792969-169.957031zm-84.691406 208.90625h106.585937c-33.089843 48.921875-38.953125 111.324219-15.574219 165.550781-2.089843 1.386719-4.113281 2.824219-6.171874 4.269531-49.46875-43.277343-79.9375-104.261718-84.839844-169.820312zm132.976562 163.488281c-28.148437-50.46875-21.300781-113.21875 17.050782-156.445312 3.71875-4.210938 7.691406-8.179688 11.921874-11.882813 51.484376-45.46875 128.796876-45.46875 180.296876 0 4.214843 3.703125 8.1875 7.671875 11.902343 11.882813 34.597657 39.207031 43.738281 94.738281 23.527344 142.972656-20.199219 48.226563-66.1875 80.660156-118.390625 83.511719-2.285156.1875-4.734375.1875-7.191406.1875h-6.394532c-.367187 0-.699218-.128906-1.070312-.148438-46.835938-2.441406-89.078125-28.960937-111.652344-70.078125zm158.074219 401.316407c0 10.765624-8.722656 19.476562-19.480469 19.476562h-38.949218c-10.757813 0-19.476563-8.710938-19.476563-19.476562v-194.753907c0-10.757812 8.71875-19.480469 19.476563-19.480469h38.949218c10.757813 0 19.480469 8.722657 19.480469 19.480469zm-58.429687-253.183594v-38.953125h38.949218v38.953125zm186.808593-141.78125c-1.953125-1.417969-4.089843-2.863282-6.171875-4.238282 23.367188-54.242187 17.5-116.640624-15.582031-165.542968h106.589844c-4.910157 65.527344-35.382813 126.503906-84.835938 169.78125zm0 0" data-original="#000000" class="active-path" style="user-select: auto;" data-old_color="#000000" fill="#FF4545"/><path d="m604.128906 623.417969c0-10.753907-8.722656-19.476563-19.476562-19.476563-43.023438 0-77.90625-34.863281-77.90625-77.902344 0-10.757812-8.71875-19.472656-19.476563-19.472656-10.75 0-19.472656 8.714844-19.472656 19.472656.070313 64.515626 52.34375 116.800782 116.855469 116.867188 10.753906 0 19.476562-8.722656 19.476562-19.488281zm0 0" data-original="#000000" class="active-path" style="user-select: auto;" data-old_color="#000000" fill="#FF4545"/></g> </svg>
