<svg height="498pt" viewBox="0 -1 498.248 498" width="498pt" xmlns="http://www.w3.org/2000/svg"><path d="m120 208.125c4.414062 0 8 3.582031 8 8h16c0-10.417969-6.710938-19.21875-16-22.527344v-17.472656h-16v17.472656c-9.289062 3.308594-16 12.109375-16 22.527344 0 13.230469 10.769531 24 24 24 4.414062 0 8 3.582031 8 8 0 4.414062-3.585938 8-8 8s-8-3.585938-8-8h-16c0 10.414062 6.710938 19.214844 16 22.527344v17.472656h16v-17.472656c9.289062-3.3125 16-12.113282 16-22.527344 0-13.234375-10.769531-24-24-24-4.414062 0-8-3.585938-8-8 0-4.417969 3.585938-8 8-8zm0 0"/><path d="m120 144.125c-48.519531 0-88 39.480469-88 88s39.480469 88 88 88 88-39.480469 88-88-39.480469-88-88-88zm0 160c-39.703125 0-72-32.296875-72-72s32.296875-72 72-72 72 32.296875 72 72-32.296875 72-72 72zm0 0"/><path d="m267.96875 143.066406 207.71875-118.695312-11.449219 45.816406 15.523438 3.871094 18.484375-73.933594h-74.246094v16h33.878906l-197.847656 113.054688zm0 0"/><path d="m432 280.125h-16v-160h-64v160h-16v-128h-64v128h-42.089844c6.449219-14.714844 10.089844-30.929688 10.089844-48 0-66.167969-53.832031-120-120-120s-120 53.832031-120 120c0 52.128906 33.464844 96.472656 80 113v23h-16v16h16v72c0 22.054688 17.945312 40 40 40s40-17.945312 40-40v-72h16v-16h-16v-23c25.519531-9.066406 47.054688-26.472656 61.335938-49h274.664062v-208h-64zm-288 176c0 13.230469-10.769531 24-24 24s-24-10.769531-24-24v-72h48zm0-88h-48v-18.417969c7.761719 1.578125 15.785156 2.417969 24 2.417969s16.238281-.839844 24-2.417969zm-24-32c-57.34375 0-104-46.65625-104-104s46.65625-104 104-104 104 46.65625 104 104-46.65625 104-104 104zm248-200h32v144h-32zm-80 32h32v112h-32zm160-64h32v176h-32zm0 0"/></svg>